<svg width="1024" height="1024" viewBox="0 0 1024 1024" fill="none" xmlns="http://www.w3.org/2000/svg">
<g clip-path="url(#clip0_201_2)">
<path d="M307.361 196.869C309.197 195.65 311.033 194.71 313.04 193.806L312.64 194.144C311.039 195.475 308.593 196.429 307.45 198.102L308.022 199.405L307.369 199.024C300.258 194.836 289.906 180.973 284.176 174.3C280.254 169.732 275.852 165.581 271.87 161.061C259.871 147.441 247.789 133.998 235.481 120.653C228.133 112.686 220.894 102.629 211.48 97.1113C206.99 94.4788 201.425 93.5159 196.36 94.8534C192.075 95.9845 188.199 98.667 185.979 102.546C183.303 107.221 183.108 113.149 184.563 118.243C185.522 121.6 187.349 124.674 189.41 127.469C198.425 139.694 209.602 150.676 219.71 162.018C230.294 173.893 240.381 186.313 251.172 197.99C257.852 205.218 268.559 214.823 273.713 222.754C271.423 225.063 268.067 227.722 265.279 229.377C266.464 227.352 268.799 225.599 270.513 223.983C264.827 215.076 252.559 203.261 245.117 194.977C232.859 181.333 221.109 167.195 208.561 153.834C200.175 144.904 188.829 134.509 182.738 123.846C180.947 120.71 180.174 117.096 180.131 113.501C180.059 107.347 182.329 100.189 186.782 95.7562C190.782 91.7737 196.2 90.5063 201.692 90.5995C206.577 90.6824 209.667 91.1071 213.765 94.0021C222.834 100.408 230.322 110.505 237.767 118.669C256.033 138.699 273.754 159.252 291.881 179.418C297.074 185.195 301.987 191.262 307.361 196.869Z" fill="#1B3A56"/>
<path d="M273.713 222.754C268.559 214.823 257.852 205.218 251.172 197.99C240.381 186.313 230.294 173.893 219.71 162.018C209.602 150.676 198.425 139.694 189.41 127.469C187.349 124.674 185.522 121.6 184.563 118.243C183.108 113.149 183.303 107.221 185.979 102.546C188.199 98.667 192.075 95.9845 196.36 94.8534C201.425 93.5159 206.99 94.4788 211.48 97.1113C220.894 102.629 228.133 112.686 235.481 120.653C247.789 133.998 259.871 147.441 271.87 161.061C275.852 165.581 280.254 169.732 284.176 174.3C289.906 180.973 300.258 194.836 307.369 199.024L308.022 199.405C309.588 200.615 312.309 203.358 312.902 205.286C315.323 209.549 319.247 212.768 321.898 216.912L319.461 218.715C315.077 213.796 311.185 208.515 306.864 203.569C303.132 199.296 299.049 195.319 295.275 191.078L243.823 133.914C235.245 124.566 225.524 111.765 215.883 103.797C211.778 100.404 206.907 97.3703 201.439 97.1413C197.574 96.9793 194.071 98.4128 191.258 101.034C188.289 103.8 186.846 107.358 186.799 111.399C186.742 116.402 188.558 121.036 191.195 125.207C198.293 136.44 209.022 145.685 217.768 155.637L286.065 233.139C293.953 242.183 304.326 251.633 310.059 262.108C308.106 261.154 306.296 259.652 304.514 258.4C300.807 256.103 298.554 251.989 294.871 249.389L291.213 251.575C289.776 249.966 288.211 248.402 287.095 246.548L287.632 245.833C287.39 244.92 287.314 244.47 287.406 243.544C287.497 242.619 287.589 242.723 287.554 241.741C287.405 237.539 282.54 234.747 279.83 232.101L280.205 231.698C280.208 228.315 275.911 225.261 273.713 222.754Z" fill="#FACD15"/>
<path d="M197.442 101.578C194.837 102.549 192.961 103.698 191.756 106.309C189.947 110.229 190.34 114.958 191.96 118.871C196.862 130.714 210.433 142.089 218.969 151.599C231.823 165.666 244.404 179.972 256.713 194.519C260.796 197.963 264.367 202.531 268.013 206.451C279.058 218.324 289.738 231.132 300.127 243.625C303.194 247.313 305.982 251.234 309.099 254.876C313.232 259.704 318.213 263.818 322.537 268.485C332.599 279.344 342.305 290.578 352.277 301.53L352.357 302.07C350.492 302.062 349.176 303.322 347.822 304.484C343.179 299.033 338.128 293.962 333.472 288.525C326.187 280.017 319.048 269.634 310.205 262.746L310.059 262.108C304.326 251.633 293.953 242.183 286.065 233.139L217.768 155.637C209.022 145.685 198.293 136.44 191.195 125.207C188.558 121.036 186.742 116.402 186.799 111.399C186.846 107.358 188.289 103.8 191.258 101.034C194.071 98.4128 197.574 96.9793 201.439 97.1413C206.907 97.3703 211.778 100.404 215.883 103.797C225.524 111.765 235.245 124.566 243.823 133.914L295.275 191.078C299.049 195.319 303.132 199.296 306.864 203.569C311.185 208.515 315.077 213.796 319.461 218.715C321.272 219.976 325.815 224.045 327.747 224.184C331.826 225.417 334.352 231.076 336.535 234.524C336.562 236.311 339.764 239.825 340.84 241.407L341.583 241.464C345.16 244.465 348.064 248.072 351.299 251.415C360.84 261.274 369.855 271.593 379.423 281.424C383.273 286.325 388.366 290.166 392.351 294.984C392.236 296.659 392.499 297.12 393.573 298.413C399.957 306.094 407.261 313.129 413.739 320.744C416.694 324.218 419.311 327.978 422.247 331.475C426.633 336.698 431.504 341.542 436.094 346.587C439.272 350.08 442.187 353.805 445.417 357.254C450.587 362.776 456.367 367.699 461.526 373.204C465.413 377.353 468.429 382.28 472.331 386.487C478.052 392.655 484.676 398.071 490.254 404.282C491.908 406.123 492.153 408.657 493.786 410.372C495.585 412.261 497.924 413.731 499.878 415.487C502.952 418.25 505.72 421.501 508.473 424.583L536.41 456.235C541.045 461.574 557.998 485.462 563.798 485.834C564.396 487.058 564.944 488.244 565.385 489.537C564.988 489.697 564.503 489.732 564.08 489.806C559.041 488.018 553.699 481.829 550.048 477.992C544.099 471.737 539.941 464.086 534.29 457.557C529.432 451.944 523.877 446.957 518.787 441.561C514.935 437.478 511.464 433.045 507.633 428.94C502.431 423.366 496.802 418.198 491.3 412.924C488.3 410.048 487.337 405.96 484.522 403.152C478.824 397.468 472.887 392.069 467.282 386.269C463.003 381.84 459.101 377.09 454.859 372.642C449.59 367.119 443.763 361.646 438.151 356.465C434.586 352.964 431.439 348.922 428.099 345.195C423.574 340.144 418.756 335.331 414.327 330.197C407.936 322.79 402.057 314.956 395.669 307.552C378.603 287.774 360.521 268.681 342.906 249.374C338.938 245.85 333.577 238.395 329.531 234.035L265.894 164.187L234.111 128.452C226.791 120.331 217.296 107.728 207.921 102.562C204.356 100.597 201.295 100.477 197.442 101.578Z" fill="#FACD15"/>
<path d="M197.442 101.578C201.295 100.477 204.356 100.597 207.921 102.562C217.296 107.728 226.791 120.331 234.111 128.452L265.894 164.187L329.531 234.035C333.577 238.395 338.938 245.85 342.906 249.374C360.521 268.681 378.603 287.774 395.669 307.552C402.057 314.956 407.936 322.79 414.327 330.197C418.756 335.331 423.574 340.144 428.099 345.195C431.439 348.922 434.586 352.964 438.151 356.465C439.569 361.217 450.357 368.266 450.459 372.127L449.94 372.669C457.171 382.199 481.884 404.052 485.456 411.943C496.142 421.489 505.585 433.02 515.213 443.615C520.484 449.415 526.328 454.744 531.287 460.813C534.97 465.322 537.845 470.384 541.457 474.925C542.919 476.762 547.567 481.198 547.833 483.283L546.104 482.173C545.619 482.639 545.132 483.097 544.67 483.585C541.359 479.719 538.014 475.88 534.874 471.873C522.642 460.024 511.694 446.357 500.103 433.83C468.816 399.931 437.88 365.713 407.295 331.178C401.023 324.124 395.131 316.737 388.825 309.714L277.727 185.797C262.831 168.965 246.631 152.643 232.654 135.061C226.477 129.064 216.417 117.916 211.576 111.07C210.402 110.358 209.148 108.615 208.498 107.435C208.128 106.585 207.605 105.867 206.972 105.193C204.355 102.408 201.129 101.641 197.442 101.578Z" fill="#FACD15"/>
<path d="M256.713 194.519C244.404 179.972 231.823 165.666 218.969 151.599C210.433 142.089 196.862 130.714 191.96 118.871C190.34 114.958 189.947 110.229 191.756 106.309C192.961 103.698 194.837 102.549 197.442 101.578C201.129 101.641 204.355 102.408 206.972 105.193C207.605 105.867 208.128 106.585 208.498 107.435C205.894 105.584 202.957 103.204 199.531 103.835C197.711 104.171 195.923 105.526 194.949 107.079C193.605 109.222 193.278 112.057 194.016 114.468C195.825 120.383 248.642 177.849 256.787 186.544L256.713 194.519Z" fill="#FACD15"/>
<path d="M256.787 186.544C248.642 177.849 195.825 120.383 194.016 114.468C193.278 112.057 193.605 109.222 194.949 107.079C195.923 105.526 197.711 104.171 199.531 103.835C202.957 103.204 205.894 105.584 208.498 107.435C209.148 108.615 210.402 110.358 211.576 111.07C216.417 117.916 226.477 129.064 232.654 135.061C246.631 152.643 262.831 168.965 277.727 185.797L388.825 309.714C395.131 316.737 401.023 324.124 407.295 331.178C437.88 365.713 468.816 399.931 500.103 433.83C511.694 446.357 522.642 460.024 534.874 471.873C538.014 475.88 541.359 479.719 544.67 483.585C557.589 498.54 570.689 513.334 583.97 527.969C589.581 534.186 598.765 542.766 603.115 549.552C604.067 551.037 604.151 552.547 604.236 554.269C601.837 558.474 599.536 560.139 595.084 561.893C588.267 559.31 554.019 516.797 545.152 508.41C541.915 503.722 537.538 499.453 533.774 495.167C523.514 483.587 513.076 472.17 502.46 460.916C498.879 456.489 495.168 452.173 491.327 447.969C483.332 437.901 473.726 428.885 465.111 419.329C453.61 406.572 442.593 392.831 430.102 381.02C426.993 376.135 421.604 371.336 417.714 366.937C410.821 359.144 404.296 350.695 396.844 343.449C388.241 332.146 377.38 322.068 368.128 311.245C346.898 286.41 325.307 262.267 303.098 238.304C296.503 231.187 290.521 223.382 283.608 216.579C280.239 210.944 262.262 192.692 256.787 186.544Z" fill="#FEFEFD"/>
<path d="M313.04 193.806C316.088 190.277 327.679 184.706 332.161 182.227C335.076 180.615 338.011 179.042 340.967 177.509C343.923 175.976 346.899 174.482 349.896 173.028C352.892 171.574 355.907 170.16 358.941 168.787C361.974 167.413 365.026 166.08 368.096 164.788C371.165 163.496 374.251 162.245 377.354 161.035C380.457 159.825 383.575 158.657 386.709 157.531C389.843 156.404 392.991 155.32 396.154 154.277C399.317 153.234 402.494 152.234 405.683 151.276C408.873 150.318 412.075 149.403 415.289 148.53C418.503 147.658 421.728 146.829 424.964 146.042C428.2 145.256 431.446 144.513 434.702 143.813C437.958 143.113 441.223 142.457 444.496 141.844C447.769 141.231 451.05 140.662 454.339 140.137C457.628 139.612 460.923 139.131 464.225 138.694C467.526 138.257 470.833 137.863 474.145 137.514C477.457 137.165 480.773 136.861 484.093 136.6C487.166 136.38 490.242 136.198 493.32 136.053C496.398 135.908 499.477 135.801 502.558 135.732C505.639 135.663 508.72 135.631 511.802 135.637C514.883 135.642 517.964 135.686 521.044 135.767C524.125 135.848 527.204 135.966 530.281 136.123C533.358 136.279 536.433 136.473 539.506 136.704C542.579 136.935 545.648 137.204 548.715 137.51C551.781 137.817 554.843 138.16 557.901 138.541C560.958 138.922 564.011 139.341 567.059 139.796C570.106 140.252 573.148 140.745 576.183 141.274C579.219 141.804 582.248 142.371 585.269 142.975C588.291 143.579 591.305 144.22 594.311 144.897C597.317 145.574 600.314 146.288 603.303 147.039C606.292 147.79 609.271 148.577 612.24 149.4C615.209 150.223 618.168 151.083 621.116 151.978C624.065 152.874 627.002 153.806 629.927 154.773C632.853 155.74 635.767 156.743 638.668 157.782C641.569 158.82 644.457 159.894 647.332 161.003C650.207 162.112 653.068 163.256 655.915 164.435C658.762 165.614 661.594 166.827 664.411 168.075C667.228 169.323 670.03 170.605 672.817 171.922C675.603 173.239 678.372 174.589 681.125 175.973C683.878 177.357 686.614 178.774 689.333 180.225C692.051 181.676 694.751 183.16 697.434 184.677C700.116 186.194 702.779 187.743 705.424 189.325C708.068 190.907 710.693 192.521 713.298 194.167C715.903 195.813 718.487 197.491 721.051 199.2C723.615 200.909 726.158 202.649 728.679 204.42C731.201 206.191 733.701 207.993 736.178 209.825C738.655 211.657 741.11 213.519 743.542 215.412C745.974 217.304 748.383 219.226 750.768 221.177C753.153 223.128 755.514 225.107 757.851 227.116C760.207 229.132 762.537 231.177 764.842 233.252C767.147 235.327 769.425 237.43 771.677 239.561C773.929 241.692 776.154 243.852 778.353 246.039C780.551 248.226 782.721 250.44 784.864 252.681C787.007 254.922 789.122 257.19 791.208 259.484C793.294 261.779 795.351 264.099 797.379 266.444C799.408 268.789 801.406 271.16 803.375 273.556C805.344 275.951 807.282 278.371 809.191 280.815C811.1 283.259 812.977 285.726 814.824 288.217C816.671 290.708 818.486 293.222 820.27 295.758C822.054 298.295 823.806 300.853 825.526 303.433C827.246 306.013 828.933 308.614 830.588 311.237C832.243 313.859 833.865 316.501 835.454 319.164C837.043 321.827 838.598 324.509 840.12 327.211C841.642 329.912 843.13 332.633 844.584 335.372C846.038 338.111 847.457 340.867 848.842 343.642C850.227 346.416 851.577 349.207 852.892 352.015C854.207 354.824 855.487 357.648 856.732 360.488C857.977 363.328 859.186 366.183 860.359 369.053C861.532 371.924 862.669 374.808 863.77 377.707C864.871 380.606 865.936 383.518 866.965 386.443C867.993 389.368 868.985 392.306 869.94 395.256C870.895 398.207 871.812 401.168 872.693 404.141C873.574 407.114 874.418 410.098 875.224 413.092C876.031 416.086 876.8 419.09 877.531 422.103C878.262 425.117 878.955 428.139 879.611 431.17C880.267 434.201 880.885 437.239 881.464 440.285C882.044 443.331 882.586 446.384 883.089 449.444C883.592 452.503 884.057 455.569 884.484 458.64C884.911 461.711 885.3 464.788 885.649 467.869C885.999 470.95 886.31 474.035 886.583 477.124C886.856 480.213 887.091 483.304 887.286 486.399C892.944 564.603 875.16 636.053 836.791 704.104C833.236 710.408 816.569 736.933 812.054 740.656C811.598 741.032 811.437 741.048 810.947 741.215C808.824 740.54 806.805 737.985 805.456 736.254C805.284 732.553 824.119 705.096 827.198 699.99C833.01 690.212 838.242 680.133 842.893 669.752C846.306 662.258 849.482 654.665 852.423 646.974C855.364 639.283 858.062 631.507 860.519 623.648C862.976 615.789 865.186 607.861 867.149 599.864C869.112 591.867 870.825 583.817 872.288 575.714C872.949 571.955 873.552 568.187 874.095 564.41C874.638 560.633 875.122 556.848 875.547 553.055C875.972 549.263 876.337 545.465 876.643 541.661C876.948 537.857 877.194 534.049 877.381 530.237C877.568 526.426 877.695 522.612 877.762 518.796C877.829 514.981 877.836 511.165 877.784 507.349C877.732 503.533 877.62 499.719 877.448 495.907C877.276 492.094 877.045 488.286 876.754 484.481C876.463 480.676 876.112 476.876 875.703 473.082C875.293 469.287 874.824 465.5 874.295 461.721C873.766 457.942 873.179 454.172 872.532 450.411C871.885 446.65 871.18 442.899 870.416 439.16C869.652 435.421 868.83 431.695 867.949 427.982C867.068 424.269 866.13 420.57 865.134 416.887C864.137 413.203 863.083 409.536 861.972 405.885C860.861 402.234 859.692 398.601 858.467 394.987C857.242 391.373 855.961 387.779 854.623 384.204C853.286 380.63 851.893 377.078 850.444 373.547C848.995 370.017 847.492 366.51 845.933 363.027C844.374 359.543 842.762 356.085 841.095 352.652C839.428 349.219 837.707 345.813 835.934 342.434C834.161 339.055 832.335 335.704 830.456 332.383C828.577 329.061 826.647 325.769 824.666 322.508C822.685 319.246 820.653 316.016 818.57 312.819C816.487 309.621 814.355 306.456 812.173 303.325C809.992 300.194 807.762 297.098 805.483 294.037C803.204 290.976 800.878 287.951 798.505 284.962C796.132 281.974 793.712 279.024 791.246 276.111C788.78 273.198 786.269 270.325 783.714 267.49C781.158 264.656 778.558 261.863 775.915 259.11C773.272 256.357 770.587 253.647 767.859 250.979C765.13 248.31 762.361 245.685 759.551 243.103C757.319 241.039 755.062 239.003 752.779 236.995C750.496 234.988 748.189 233.009 745.857 231.058C743.525 229.108 741.169 227.187 738.789 225.296C736.409 223.405 734.006 221.543 731.579 219.711C729.153 217.88 726.704 216.079 724.233 214.308C721.762 212.537 719.269 210.798 716.754 209.09C714.239 207.381 711.704 205.704 709.148 204.059C706.591 202.414 704.015 200.801 701.418 199.22C698.821 197.639 696.205 196.091 693.57 194.575C690.935 193.059 688.281 191.576 685.609 190.127C682.937 188.678 680.247 187.262 677.54 185.879C674.832 184.496 672.108 183.148 669.367 181.833C666.626 180.518 663.869 179.238 661.096 177.993C658.323 176.747 655.534 175.536 652.731 174.359C649.928 173.183 647.11 172.042 644.279 170.936C641.447 169.829 638.602 168.759 635.744 167.724C632.885 166.689 630.014 165.689 627.131 164.725C624.248 163.762 621.353 162.834 618.447 161.943C615.54 161.052 612.623 160.197 609.696 159.378C606.768 158.559 603.83 157.776 600.883 157.031C597.936 156.286 594.98 155.577 592.015 154.905C589.05 154.234 586.078 153.599 583.097 153.001C580.116 152.403 577.129 151.843 574.134 151.32C571.139 150.797 568.138 150.311 565.131 149.862C562.124 149.414 559.113 149.003 556.096 148.63C553.079 148.257 550.057 147.921 547.032 147.623C544.007 147.325 540.978 147.065 537.946 146.842C534.914 146.619 531.88 146.435 528.844 146.288C525.807 146.141 522.769 146.032 519.73 145.961C516.691 145.89 513.651 145.856 510.611 145.861C507.571 145.866 504.531 145.908 501.492 145.989C498.453 146.07 495.416 146.188 492.38 146.344C434.429 149.093 371.447 168.491 322.772 200.222C319.781 202.172 315.548 203.242 312.902 205.286C312.309 203.358 309.588 200.615 308.022 199.405L307.45 198.102C308.593 196.429 311.039 195.475 312.64 194.144L313.04 193.806Z" fill="#FACD15"/>
<path d="M338.637 207.199C340.972 205.808 343.324 204.446 345.691 203.113C348.059 201.779 350.443 200.474 352.842 199.197C355.241 197.92 357.655 196.673 360.084 195.454C362.513 194.235 364.957 193.046 367.415 191.887C369.872 190.727 372.344 189.597 374.829 188.496C377.314 187.395 379.811 186.325 382.322 185.285C384.833 184.244 387.355 183.234 389.89 182.254C392.425 181.275 394.972 180.326 397.529 179.407C400.087 178.488 402.655 177.601 405.234 176.744C407.813 175.887 410.402 175.061 413.001 174.266C415.6 173.471 418.209 172.708 420.826 171.976C423.443 171.244 426.068 170.544 428.703 169.875C431.337 169.206 433.979 168.569 436.628 167.963C439.277 167.358 441.934 166.784 444.597 166.243C447.26 165.702 449.929 165.192 452.604 164.714C455.28 164.237 457.961 163.792 460.647 163.379C463.333 162.966 466.024 162.585 468.719 162.237C471.414 161.888 474.113 161.572 476.816 161.289C479.519 161.006 482.225 160.755 484.934 160.536C487.643 160.317 490.354 160.131 493.067 159.978C495.78 159.825 498.495 159.705 501.211 159.616C503.928 159.528 506.645 159.473 509.362 159.45C512.079 159.427 514.797 159.437 517.514 159.48C520.231 159.523 522.948 159.598 525.664 159.705C528.379 159.813 531.093 159.954 533.805 160.127C536.518 160.3 539.228 160.505 541.935 160.743C544.642 160.982 547.345 161.252 550.046 161.555C552.747 161.858 555.443 162.194 558.136 162.562C560.829 162.93 563.517 163.33 566.2 163.763C568.883 164.196 571.56 164.66 574.232 165.157C576.904 165.654 579.57 166.183 582.229 166.744C584.888 167.305 587.54 167.897 590.185 168.522C681.843 190.839 762.319 246.525 811.478 327.542C813.01 330.055 814.511 332.586 815.98 335.135C817.449 337.685 818.887 340.253 820.293 342.838C821.698 345.423 823.072 348.026 824.413 350.645C825.755 353.264 827.064 355.899 828.34 358.551C829.616 361.202 830.859 363.869 832.07 366.552C833.28 369.234 834.457 371.931 835.601 374.643C836.744 377.354 837.854 380.079 838.93 382.818C840.007 385.557 841.049 388.309 842.057 391.074C843.065 393.839 844.039 396.615 844.978 399.404C845.917 402.193 846.822 404.993 847.692 407.804C848.563 410.615 849.398 413.437 850.198 416.268C850.999 419.1 851.764 421.941 852.494 424.792C853.224 427.643 853.919 430.502 854.578 433.37C855.237 436.238 855.861 439.114 856.45 441.997C857.038 444.881 857.59 447.771 858.107 450.668C858.624 453.565 859.105 456.468 859.55 459.377C859.995 462.286 860.403 465.2 860.776 468.119C861.149 471.038 861.486 473.962 861.786 476.889C862.087 479.816 862.351 482.747 862.579 485.681C862.808 488.614 863 491.55 863.155 494.489C863.31 497.428 863.429 500.368 863.512 503.31C863.595 506.251 863.641 509.193 863.651 512.136C863.661 515.079 863.635 518.022 863.572 520.964C863.509 523.906 863.409 526.847 863.274 529.786C863.139 532.726 862.967 535.664 862.758 538.599C862.55 541.534 862.306 544.467 862.025 547.396C861.744 550.325 861.427 553.251 861.074 556.172C860.721 559.094 860.331 562.011 859.906 564.922C859.481 567.834 859.02 570.74 858.523 573.641C858.026 576.542 857.493 579.436 856.924 582.323C856.355 585.21 855.751 588.09 855.111 590.962C854.471 593.835 853.796 596.699 853.085 599.554C852.382 602.465 851.641 605.365 850.86 608.256C850.079 611.147 849.259 614.027 848.401 616.896C847.543 619.765 846.646 622.621 845.711 625.466C844.776 628.311 843.803 631.142 842.792 633.96C841.781 636.779 840.733 639.583 839.646 642.374C838.559 645.164 837.436 647.939 836.275 650.699C835.114 653.459 833.916 656.203 832.681 658.931C831.446 661.659 830.174 664.37 828.867 667.064C827.559 669.757 826.215 672.433 824.836 675.091C823.456 677.748 822.041 680.387 820.591 683.007C819.14 685.626 817.655 688.226 816.134 690.805C814.613 693.385 813.058 695.944 811.469 698.482C809.88 701.019 808.257 703.535 806.6 706.03C804.943 708.524 803.253 710.995 801.53 713.444C799.807 715.893 798.051 718.318 796.262 720.72C794.474 723.121 792.654 725.498 790.801 727.851C788.479 725.625 786.201 723.312 783.808 721.164C794.539 709.418 803.529 694.751 811.244 680.89C812.215 679.135 813.172 677.372 814.113 675.601C815.054 673.829 815.979 672.049 816.888 670.262C817.798 668.474 818.692 666.678 819.57 664.875C820.448 663.072 821.31 661.261 822.157 659.442C823.003 657.623 823.833 655.798 824.648 653.965C825.463 652.132 826.261 650.292 827.043 648.445C827.825 646.598 828.591 644.744 829.341 642.884C830.091 641.023 830.825 639.156 831.542 637.283C832.259 635.41 832.959 633.53 833.644 631.645C834.328 629.76 834.995 627.868 835.646 625.971C836.297 624.074 836.932 622.171 837.55 620.263C838.167 618.354 838.768 616.441 839.353 614.522C839.937 612.603 840.504 610.679 841.055 608.75C841.606 606.821 842.139 604.888 842.656 602.95C843.173 601.012 843.672 599.069 844.155 597.122C844.638 595.175 845.104 593.225 845.552 591.27C846.001 589.315 846.432 587.356 846.847 585.393C847.261 583.43 847.658 581.464 848.038 579.495C848.418 577.526 848.781 575.553 849.126 573.577C849.471 571.601 849.799 569.622 850.11 567.641C850.421 565.659 850.714 563.675 850.99 561.688C851.265 559.701 851.524 557.712 851.765 555.721C852.006 553.73 852.23 551.736 852.436 549.741C852.642 547.746 852.831 545.749 853.002 543.751C853.173 541.752 853.327 539.752 853.463 537.751C853.6 535.75 853.719 533.747 853.82 531.744C853.921 529.741 854.004 527.737 854.07 525.732C854.137 523.727 854.185 521.722 854.216 519.717C854.247 517.711 854.261 515.705 854.256 513.7C854.252 511.694 854.23 509.688 854.191 507.683C854.152 505.678 854.095 503.673 854.021 501.668C853.946 499.663 853.854 497.66 853.745 495.657C853.634 492.855 853.489 490.055 853.309 487.257C853.129 484.459 852.914 481.663 852.664 478.87C852.414 476.077 852.129 473.288 851.809 470.503C851.489 467.717 851.135 464.936 850.746 462.159C850.357 459.382 849.933 456.61 849.474 453.844C849.016 451.078 848.523 448.318 847.996 445.564C847.469 442.81 846.907 440.063 846.311 437.323C845.716 434.583 845.086 431.851 844.422 429.127C843.758 426.402 843.06 423.687 842.328 420.98C841.596 418.273 840.83 415.576 840.031 412.888C839.232 410.201 838.399 407.523 837.533 404.856C836.667 402.189 835.768 399.534 834.836 396.889C833.903 394.245 832.938 391.613 831.94 388.992C830.942 386.372 829.911 383.765 828.848 381.17C827.785 378.575 826.689 375.994 825.562 373.427C824.434 370.86 823.274 368.307 822.083 365.769C820.892 363.23 819.669 360.707 818.415 358.199C817.16 355.692 815.875 353.2 814.558 350.724C813.241 348.249 811.894 345.79 810.516 343.348C809.139 340.906 807.731 338.481 806.292 336.074C804.853 333.667 803.385 331.279 801.887 328.909C800.389 326.538 798.861 324.187 797.304 321.855C795.747 319.523 794.162 317.211 792.547 314.918C790.932 312.626 789.289 310.354 787.618 308.102C785.947 305.851 784.248 303.621 782.521 301.412C780.794 299.203 779.039 297.015 777.258 294.85C775.477 292.685 773.668 290.542 771.833 288.422C769.998 286.302 768.136 284.205 766.249 282.132C764.362 280.058 762.449 278.008 760.51 275.983C758.571 273.957 756.608 271.956 754.619 269.979C752.63 268.002 750.617 266.05 748.58 264.123C746.543 262.197 744.482 260.296 742.397 258.421C740.875 257.033 739.341 255.659 737.795 254.299C736.248 252.938 734.69 251.592 733.12 250.26C731.549 248.927 729.967 247.609 728.373 246.305C726.779 245.001 725.174 243.711 723.557 242.436C721.94 241.16 720.311 239.899 718.671 238.653C717.032 237.407 715.381 236.176 713.719 234.959C712.058 233.742 710.385 232.54 708.702 231.353C707.019 230.166 705.325 228.995 703.621 227.838C701.917 226.681 700.203 225.54 698.478 224.415C696.753 223.289 695.019 222.179 693.275 221.084C691.53 219.989 689.776 218.909 688.013 217.846C686.249 216.783 684.476 215.735 682.693 214.704C680.911 213.672 679.12 212.656 677.319 211.656C675.518 210.657 673.709 209.673 671.89 208.706C670.072 207.739 668.245 206.788 666.41 205.853C664.575 204.918 662.731 204 660.88 203.099C659.028 202.197 657.168 201.312 655.301 200.444C653.434 199.575 651.559 198.724 649.676 197.889C647.793 197.054 645.903 196.236 644.005 195.435C642.108 194.634 640.203 193.85 638.292 193.083C636.381 192.316 634.463 191.567 632.538 190.834C630.613 190.101 628.682 189.386 626.744 188.688C624.807 187.99 622.863 187.309 620.913 186.646C618.964 185.983 617.008 185.337 615.047 184.709C613.086 184.08 611.119 183.47 609.146 182.877C607.174 182.284 605.197 181.708 603.214 181.15C601.231 180.593 599.244 180.053 597.252 179.53C595.26 179.008 593.263 178.504 591.262 178.018C589.261 177.531 587.255 177.063 585.245 176.612C583.236 176.161 581.222 175.729 579.205 175.314C577.188 174.899 575.167 174.503 573.142 174.125C571.117 173.746 569.09 173.386 567.059 173.044C547.314 169.634 526.905 167.638 506.856 168.569C491.143 169.299 475.351 170.405 459.802 172.835C454.721 173.672 449.661 174.623 444.623 175.686C439.584 176.749 434.572 177.925 429.586 179.213C424.6 180.501 419.645 181.9 414.722 183.409C409.799 184.918 404.911 186.537 400.06 188.265C395.209 189.994 390.4 191.83 385.631 193.773C380.862 195.716 376.139 197.765 371.462 199.92C366.785 202.075 362.158 204.333 357.582 206.694C353.006 209.056 348.485 211.519 344.019 214.083C342.26 212.661 338.832 210.963 336.601 210.607L336.733 212.045L336.203 212.177L335.931 213.187L334.355 212.719L334.027 211.819C335.023 209.881 336.781 209.47 338.096 207.877C338.28 207.654 338.457 207.425 338.637 207.199Z" fill="#FACD15"/>
<path d="M501.888 191.356C449.05 193.563 404.455 207.261 357.626 231.41L356.558 230.698C356.499 229.84 356.458 229.546 356.063 228.748L355.253 228.859L354.921 230.171C354.427 230.163 354.249 230.188 353.724 230.02C352.644 229.675 351.841 229.027 351.282 228.091C353.037 226.136 356.375 225.445 357.723 223.332C357.861 223.116 357.982 222.891 358.112 222.671C361.774 219.547 368.642 216.874 373.089 214.743C377.452 212.696 381.856 210.743 386.302 208.884C390.747 207.025 395.23 205.262 399.751 203.593C404.272 201.924 408.827 200.353 413.414 198.878C418.001 197.403 422.618 196.026 427.265 194.747C431.911 193.468 436.582 192.289 441.278 191.209C445.975 190.129 450.692 189.149 455.43 188.27C460.168 187.391 464.922 186.613 469.693 185.936C474.464 185.259 479.248 184.683 484.043 184.209C569.177 176.209 656.099 205.019 721.608 259.351C791.279 317.137 830.86 396.788 838.986 486.501C840.768 506.181 840.074 526.126 838.031 545.754C833.228 591.892 820.561 635.371 797.874 675.955C791.395 687.545 784.142 699.448 775.634 709.662C773.883 707.782 772.3 705.783 770.7 703.776C807.594 650.135 827.711 596.405 831.044 530.965C835.468 444.12 807.061 360.734 748.591 296.125C747.046 294.424 745.484 292.74 743.903 291.073C742.322 289.406 740.723 287.756 739.107 286.123C737.49 284.49 735.856 282.875 734.205 281.278C732.554 279.681 730.886 278.101 729.201 276.539C727.516 274.978 725.814 273.434 724.095 271.909C722.377 270.384 720.642 268.878 718.891 267.391C717.14 265.903 715.374 264.434 713.591 262.985C711.809 261.535 710.011 260.105 708.198 258.694C706.385 257.283 704.556 255.892 702.713 254.52C700.87 253.149 699.012 251.797 697.14 250.466C695.267 249.134 693.381 247.823 691.48 246.532C689.579 245.241 687.665 243.971 685.737 242.721C683.81 241.472 681.869 240.243 679.914 239.035C677.96 237.827 675.993 236.64 674.013 235.475C672.033 234.309 670.041 233.165 668.036 232.042C666.031 230.919 664.015 229.819 661.987 228.74C659.958 227.661 657.919 226.603 655.868 225.568C653.817 224.533 651.755 223.519 649.682 222.528C647.609 221.537 645.526 220.569 643.432 219.623C641.339 218.677 639.235 217.754 637.121 216.853C635.008 215.952 632.885 215.074 630.752 214.219C628.62 213.364 626.479 212.532 624.328 211.723C622.178 210.914 620.019 210.128 617.852 209.365C615.685 208.603 613.509 207.864 611.326 207.148C609.143 206.433 606.952 205.741 604.754 205.072C602.556 204.403 600.351 203.759 598.139 203.138C595.927 202.517 593.708 201.919 591.483 201.346C589.258 200.773 587.028 200.224 584.791 199.699C582.554 199.174 580.312 198.672 578.065 198.195C575.818 197.718 573.565 197.266 571.308 196.837C569.051 196.409 566.789 196.005 564.523 195.625C562.257 195.245 559.987 194.89 557.714 194.559C544.995 192.663 532.209 191.913 519.376 191.285C515.346 190.389 506.308 190.998 501.888 191.356Z" fill="#FEFEFD"/>
<path d="M256.787 186.544C262.262 192.692 280.239 210.944 283.608 216.579C290.521 223.382 296.503 231.187 303.098 238.304C325.307 262.267 346.898 286.41 368.128 311.245C377.38 322.068 388.241 332.146 396.844 343.449C404.296 350.695 410.821 359.144 417.714 366.937C421.604 371.336 426.993 376.135 430.102 381.02C442.593 392.831 453.61 406.572 465.111 419.329C473.726 428.885 483.332 437.901 491.327 447.969C495.168 452.172 498.879 456.488 502.46 460.916C501.911 460.936 501.306 460.985 500.764 460.88C498.691 460.479 493.725 453.465 491.997 451.684C487.557 447.11 482.414 443.274 478.06 438.616C469.127 429.056 460.642 418.972 451.939 409.195C440.887 396.78 429.613 384.612 418.659 372.094C409.947 362.136 401.633 352.006 392.574 342.317C385.031 334.249 377.223 325.93 369.188 318.354C365.59 314.962 361.254 312.568 357.988 308.777C356.358 306.42 354.388 304.093 352.357 302.07L352.277 301.53C342.305 290.578 332.599 279.344 322.537 268.485C318.213 263.818 313.232 259.704 309.099 254.876C305.982 251.234 303.194 247.313 300.127 243.625C289.738 231.132 279.058 218.324 268.013 206.451C264.367 202.531 260.796 197.963 256.713 194.519L256.787 186.544Z" fill="#FACD15"/>
<path d="M501.888 191.356C506.308 190.998 515.346 190.389 519.376 191.285L518.194 191.661C516.865 196.616 517.946 205.5 518.02 210.911L518.395 244C518.99 284.327 519.341 324.657 519.448 364.988C514.049 362.522 508.864 357.063 504.314 353.271C504.612 346.16 505.037 338.842 504.378 331.749C503.803 321.632 504.409 311.134 504.506 300.977C504.711 276.782 505.219 252.594 506.03 228.412C506.269 218.293 507.607 201.502 506.434 191.885C505.197 191.053 503.331 191.349 501.888 191.356Z" fill="#FACD15"/>
<path d="M357.626 231.41C404.455 207.261 449.05 193.563 501.888 191.356C503.331 191.349 505.197 191.053 506.434 191.885C507.607 201.502 506.269 218.293 506.03 228.412C505.219 252.594 504.711 276.782 504.506 300.977C504.409 311.134 503.803 321.632 504.378 331.749C503.352 354.131 503.826 376.736 502.095 399.087C501.991 403.813 502.027 408.592 501.563 413.299C492.501 408.556 498.774 402.373 494.323 397.421C493.061 396.016 487.162 396.726 485.128 395.698C483.391 394.82 481.381 392.275 479.967 390.874C477.841 387.261 474.152 384.545 472.303 380.751C474.979 379.246 491.42 380.616 496.009 380.531L496.025 368.484C489.172 368.342 464.53 370.146 460.101 367.109C457.697 365.461 455.87 361.519 453.993 359.24C452.34 357.232 450.236 355.464 448.311 353.715C450.042 355.872 451.714 357.973 453.138 360.352L453.444 360.871C449.25 356.982 423.392 329.118 421.12 325.034C427.408 323.942 434.475 325.923 440.903 326.03C459.71 326.342 478.542 326.11 497.353 326.179C497.726 321.808 497.575 317.338 497.6 312.951C470.118 313.402 440.03 311.551 412.973 314.941C408.797 313.827 398.587 298.728 392.999 294.583C394.608 293.179 396.227 291.788 397.858 290.409C399.344 289.178 400.748 287.908 402.126 286.557C417.321 274.626 431.721 261.85 447.543 250.691C455.329 245.276 463.219 240.018 471.213 234.915C476.118 231.831 481.306 229.048 485.941 225.566C482.296 226.684 478.671 227.867 475.068 229.116C471.465 230.365 467.886 231.679 464.331 233.057C460.776 234.436 457.247 235.878 453.744 237.384C450.241 238.89 446.766 240.459 443.32 242.091C439.873 243.722 436.458 245.416 433.073 247.171C429.688 248.926 426.335 250.742 423.016 252.619C419.697 254.496 416.412 256.432 413.163 258.427C409.914 260.422 406.701 262.476 403.526 264.587C399.164 267.456 393.656 270.453 389.93 274.102C387.268 275.601 384.928 277.514 382.529 279.392L379.423 281.424C369.855 271.593 360.84 261.274 351.299 251.415C348.064 248.072 345.16 244.465 341.583 241.464C347 238.394 352.449 234.873 357.626 231.41ZM479.526 256.734C474.279 257.95 466.916 266.324 462.684 269.875L481.684 270.003L497.982 269.948L498.005 256.693C491.864 256.65 485.656 256.43 479.526 256.734ZM443.971 286.081C438.64 289.812 433.889 294.394 428.932 298.6L483.25 298.524L497.49 298.58L497.643 286.249C488.082 285.839 478.459 286.012 468.889 285.99C460.608 285.972 452.24 285.719 443.971 286.081Z" fill="#1B3A56"/>
<path d="M329.821 212.269C332.712 210.448 335.577 208.722 338.637 207.199C338.457 207.425 338.28 207.654 338.096 207.877C336.781 209.47 335.023 209.881 334.027 211.819L334.355 212.719L335.931 213.187L336.203 212.177L336.733 212.045L336.601 210.607C338.832 210.963 342.26 212.661 344.019 214.083L337.609 217.741C335.247 215.507 331.918 214.74 329.821 212.269Z" fill="#FACD15"/>
<path d="M325.476 214.781C326.913 213.926 328.372 213.105 329.821 212.269C331.918 214.74 335.247 215.507 337.609 217.741L330.699 221.999C329.532 218.561 328.303 217.051 325.476 214.781Z" fill="#FACD15"/>
<path d="M321.898 216.912L325.476 214.781C328.303 217.051 329.532 218.561 330.699 221.999L327.747 224.184C325.815 224.045 321.272 219.976 319.461 218.715L321.898 216.912Z" fill="#FACD15"/>
<path d="M265.279 229.377C268.067 227.722 271.423 225.063 273.713 222.754C275.911 225.261 280.208 228.315 280.205 231.698L279.83 232.101C273.287 235.059 265.465 243.898 260.079 248.922C218.469 287.729 188.323 335.757 168.287 388.744C167.259 391.537 166.265 394.342 165.306 397.159C164.347 399.976 163.422 402.804 162.532 405.644C161.642 408.483 160.787 411.333 159.967 414.194C159.147 417.055 158.362 419.925 157.613 422.805C156.863 425.685 156.149 428.574 155.47 431.471C154.791 434.368 154.148 437.274 153.541 440.187C152.933 443.1 152.361 446.021 151.825 448.948C151.29 451.875 150.79 454.809 150.326 457.748C149.862 460.687 149.434 463.632 149.042 466.582C148.651 469.532 148.295 472.487 147.976 475.446C147.657 478.405 147.374 481.367 147.127 484.332C146.88 487.298 146.67 490.266 146.496 493.237C146.322 496.208 146.185 499.18 146.084 502.154C145.983 505.129 145.919 508.104 145.891 511.079C145.863 514.055 145.871 517.031 145.916 520.006C145.961 522.981 146.043 525.956 146.161 528.93C146.279 531.903 146.433 534.875 146.624 537.845C146.815 540.814 147.042 543.781 147.306 546.746C147.569 549.71 147.869 552.67 148.206 555.627C148.542 558.584 148.914 561.536 149.323 564.484C149.732 567.432 150.176 570.374 150.657 573.311C151.138 576.248 151.654 579.178 152.207 582.102C152.76 585.026 153.348 587.943 153.973 590.853C154.597 593.763 155.257 596.665 155.952 599.558C156.647 602.451 157.378 605.336 158.144 608.211C158.911 611.087 159.712 613.953 160.548 616.809C161.385 619.665 162.256 622.51 163.162 625.344C164.068 628.179 165.009 631.002 165.985 633.814C166.96 636.625 167.97 639.424 169.014 642.211C170.058 644.998 171.136 647.771 172.248 650.531C173.36 653.292 174.506 656.038 175.686 658.77C176.865 661.502 178.078 664.219 179.324 666.922C180.554 669.618 181.817 672.299 183.112 674.964C184.407 677.63 185.735 680.279 187.095 682.912C188.454 685.545 189.846 688.161 191.27 690.76C192.693 693.359 194.148 695.941 195.635 698.504C197.122 701.068 198.639 703.613 200.188 706.139C201.737 708.666 203.317 711.173 204.926 713.661C206.536 716.15 208.176 718.618 209.846 721.066C211.516 723.514 213.216 725.941 214.945 728.348C216.674 730.755 218.433 733.14 220.22 735.503C222.007 737.867 223.823 740.209 225.668 742.528C227.513 744.847 229.385 747.144 231.286 749.418C233.186 751.691 235.114 753.942 237.07 756.169C239.025 758.396 241.007 760.598 243.016 762.776C245.025 764.955 247.061 767.108 249.123 769.237C251.184 771.366 253.271 773.469 255.384 775.547C257.497 777.625 259.635 779.677 261.798 781.703C263.961 783.728 266.149 785.727 268.36 787.7C270.572 789.672 272.808 791.617 275.067 793.535C277.326 795.453 279.609 797.343 281.914 799.205C284.219 801.068 286.546 802.902 288.896 804.707C291.246 806.512 293.618 808.289 296.011 810.036C298.404 811.784 300.819 813.502 303.254 815.191C305.689 816.88 308.145 818.538 310.621 820.167C313.096 821.796 315.591 823.395 318.106 824.963C320.621 826.53 323.154 828.067 325.706 829.574C328.259 831.08 330.829 832.555 333.417 833.998C336.005 835.442 338.61 836.854 341.233 838.234C343.856 839.614 346.495 840.962 349.15 842.277C351.805 843.592 354.476 844.875 357.163 846.126C359.85 847.377 362.551 848.594 365.268 849.779C367.984 850.964 370.714 852.115 373.459 853.233C376.204 854.351 378.961 855.435 381.732 856.486C384.572 857.543 387.425 858.566 390.29 859.554C393.156 860.541 396.033 861.494 398.922 862.411C401.811 863.328 404.71 864.209 407.62 865.055C410.531 865.901 413.451 866.711 416.381 867.485C419.311 868.259 422.25 868.997 425.199 869.7C428.147 870.402 431.103 871.068 434.068 871.697C437.033 872.327 440.005 872.92 442.984 873.477C445.963 874.034 448.949 874.554 451.941 875.037C454.933 875.52 457.93 875.967 460.933 876.377C463.936 876.787 466.943 877.16 469.955 877.496C472.967 877.833 475.983 878.132 479.003 878.394C482.022 878.656 485.044 878.881 488.069 879.069C491.094 879.258 494.12 879.409 497.149 879.522C500.178 879.636 503.207 879.713 506.238 879.752C509.269 879.792 512.299 879.794 515.33 879.759C518.36 879.724 521.39 879.652 524.419 879.543C527.448 879.434 530.475 879.288 533.5 879.105C536.525 878.922 539.548 878.701 542.567 878.443C545.587 878.186 548.603 877.891 551.616 877.56C554.629 877.229 557.637 876.86 560.64 876.455C563.643 876.05 566.641 875.608 569.634 875.129C572.627 874.65 575.613 874.134 578.594 873.582C581.574 873.03 584.547 872.442 587.512 871.817C590.477 871.192 593.435 870.53 596.385 869.833C599.334 869.135 602.275 868.401 605.206 867.632C608.137 866.862 611.059 866.056 613.97 865.215C616.882 864.374 619.783 863.497 622.673 862.585C625.563 861.672 628.441 860.724 631.308 859.741C634.175 858.758 637.03 857.74 639.872 856.687C642.714 855.634 645.542 854.546 648.357 853.423C651.172 852.301 653.973 851.144 656.76 849.953C659.547 848.762 662.319 847.536 665.076 846.277C692.047 833.954 718.429 818.06 741.685 799.645C747.904 794.657 753.988 789.508 759.935 784.199C762.952 781.541 766.502 777.54 769.981 775.624C771.951 778.024 774.153 780.765 776.956 782.218L776.962 782.536C771.785 785.607 767.156 791.424 762.698 795.525C691.691 860.854 590.114 894.542 494.307 890.281C491.215 890.153 488.125 889.987 485.036 889.782C481.948 889.577 478.863 889.333 475.781 889.052C472.699 888.771 469.621 888.451 466.547 888.093C463.472 887.735 460.403 887.339 457.339 886.904C454.275 886.469 451.217 885.997 448.164 885.487C445.111 884.976 442.066 884.428 439.027 883.842C435.988 883.256 432.956 882.632 429.933 881.971C426.91 881.31 423.895 880.611 420.889 879.874C417.883 879.138 414.887 878.364 411.9 877.553C408.913 876.742 405.936 875.895 402.971 875.01C400.005 874.125 397.051 873.204 394.108 872.245C391.165 871.287 388.235 870.292 385.316 869.261C382.398 868.23 379.493 867.162 376.602 866.059C373.711 864.956 370.833 863.817 367.97 862.642C365.107 861.467 362.258 860.257 359.425 859.011C356.592 857.766 353.774 856.485 350.973 855.169C348.172 853.854 345.387 852.504 342.62 851.119C339.852 849.734 337.102 848.314 334.369 846.861C331.636 845.408 328.922 843.921 326.227 842.4C323.532 840.879 320.855 839.325 318.198 837.738C315.541 836.151 312.905 834.531 310.288 832.878C307.671 831.225 305.076 829.54 302.501 827.823C299.926 826.106 297.373 824.357 294.842 822.576C292.311 820.795 289.802 818.983 287.316 817.14C284.829 815.297 282.366 813.423 279.927 811.519C277.487 809.614 275.071 807.68 272.68 805.716C270.289 803.751 267.922 801.757 265.58 799.734C263.238 797.711 260.921 795.659 258.63 793.578C256.339 791.497 254.075 789.388 251.836 787.251C249.597 785.114 247.386 782.949 245.201 780.757C243.016 778.565 240.859 776.346 238.729 774.101C236.6 771.855 234.498 769.583 232.425 767.285C230.36 764.994 228.324 762.679 226.315 760.339C224.307 757.999 222.328 755.635 220.377 753.246C218.426 750.858 216.505 748.446 214.614 746.01C212.722 743.575 210.86 741.117 209.029 738.636C207.198 736.155 205.397 733.652 203.626 731.127C201.855 728.602 200.116 726.056 198.408 723.489C196.7 720.922 195.023 718.334 193.378 715.726C191.733 713.117 190.12 710.489 188.539 707.842C186.958 705.194 185.41 702.527 183.895 699.842C182.379 697.157 180.896 694.453 179.446 691.731C177.997 689.01 176.581 686.271 175.198 683.514C173.815 680.758 172.466 677.985 171.151 675.196C169.836 672.407 168.555 669.602 167.309 666.781C166.062 663.96 164.85 661.125 163.673 658.275C162.496 655.425 161.353 652.561 160.246 649.683C159.139 646.804 158.067 643.913 157.03 641.009C155.993 638.105 154.992 635.189 154.027 632.26C153.062 629.331 152.132 626.391 151.238 623.44C150.345 620.488 149.487 617.526 148.666 614.554C147.845 611.581 147.06 608.599 146.311 605.608C145.562 602.617 144.851 599.617 144.176 596.608C143.501 593.599 142.862 590.582 142.261 587.557C141.659 584.533 141.094 581.502 140.567 578.463C140.04 575.425 139.549 572.381 139.096 569.331C138.643 566.28 138.228 563.225 137.849 560.164C137.47 557.104 137.129 554.04 136.826 550.971C136.523 547.902 136.257 544.83 136.028 541.755C135.799 538.68 135.608 535.602 135.455 532.522C135.302 529.442 135.186 526.361 135.108 523.278C135.029 520.195 134.989 517.112 134.986 514.028C134.983 510.945 135.018 507.862 135.091 504.779C135.163 501.696 135.273 498.614 135.421 495.534C135.568 492.887 135.742 490.241 135.943 487.597C136.144 484.954 136.373 482.312 136.629 479.673C136.885 477.034 137.168 474.398 137.479 471.765C137.79 469.132 138.128 466.502 138.493 463.876C138.858 461.25 139.251 458.628 139.67 456.01C140.089 453.392 140.536 450.779 141.009 448.17C141.483 445.561 141.984 442.957 142.511 440.359C143.038 437.76 143.593 435.168 144.174 432.581C144.755 429.994 145.363 427.413 145.998 424.839C146.632 422.264 147.293 419.697 147.981 417.137C148.669 414.576 149.383 412.023 150.124 409.477C150.865 406.931 151.632 404.393 152.425 401.863C153.218 399.333 154.037 396.812 154.883 394.299C155.728 391.786 156.6 389.282 157.497 386.787C158.394 384.292 159.317 381.806 160.266 379.33C161.215 376.855 162.189 374.389 163.189 371.933C164.188 369.478 165.213 367.033 166.264 364.598C167.315 362.163 168.39 359.74 169.491 357.328C170.592 354.916 171.717 352.515 172.867 350.126C174.018 347.737 175.193 345.361 176.392 342.996C177.591 340.632 178.815 338.28 180.064 335.941C181.312 333.602 182.584 331.276 183.881 328.963C185.178 326.65 186.498 324.351 187.842 322.065C189.186 319.78 190.553 317.508 191.944 315.251C193.335 312.994 194.75 310.752 196.187 308.524C197.625 306.296 199.086 304.083 200.569 301.886C202.052 299.688 203.558 297.506 205.087 295.34C206.615 293.173 208.166 291.023 209.739 288.888C211.312 286.754 212.907 284.636 214.524 282.535C216.141 280.434 217.78 278.349 219.44 276.282C221.1 274.215 222.781 272.165 224.484 270.132C226.187 268.099 227.91 266.085 229.654 264.088C238.172 254.425 247.593 245.027 257.123 236.364C259.616 234.098 262.351 232.091 264.818 229.809L265.279 229.377Z" fill="#FACD15"/>
<path d="M336.535 234.524C343.591 230.394 350.725 226.18 358.112 222.671C357.982 222.891 357.861 223.116 357.723 223.332C356.375 225.445 353.037 226.136 351.282 228.091C351.841 229.027 352.644 229.675 353.724 230.02C354.249 230.188 354.427 230.163 354.921 230.171L355.253 228.859L356.063 228.748C356.458 229.546 356.499 229.84 356.558 230.698L357.626 231.41C352.449 234.873 347 238.394 341.583 241.464L340.84 241.407C339.764 239.825 336.562 236.311 336.535 234.524Z" fill="#FEFEFD"/>
<path d="M389.93 274.102C393.656 270.453 399.164 267.456 403.526 264.587C406.701 262.476 409.914 260.422 413.163 258.427C416.412 256.432 419.697 254.496 423.016 252.619C426.335 250.742 429.688 248.926 433.073 247.171C436.458 245.416 439.873 243.722 443.32 242.091C446.766 240.459 450.241 238.89 453.744 237.384C457.247 235.878 460.777 234.436 464.332 233.057C467.887 231.679 471.465 230.365 475.068 229.116C478.671 227.867 482.296 226.684 485.941 225.566C481.306 229.048 476.118 231.831 471.213 234.915C463.219 240.018 455.329 245.276 447.543 250.691C431.721 261.85 417.321 274.626 402.126 286.557C400.319 285.261 399.223 282.192 397.749 280.353L396.936 280.612L397.403 280.253L397.739 280.367L396.213 280.704L396.867 280.15C393.616 279.584 390.846 278.978 388 277.252L387.911 276.773C388.533 276.126 389.023 275.552 389.51 274.789C389.655 274.563 389.79 274.331 389.93 274.102Z" fill="#FACD15"/>
<path d="M703.784 363.458C699.598 359.423 695.813 354.782 691.914 350.46C683.533 341.17 675.198 331.794 666.239 323.051C659.368 316.21 652.339 309.535 645.154 303.024C637.969 296.514 630.634 290.176 623.151 284.01C615.668 277.844 608.045 271.857 600.28 266.05C592.516 260.243 584.62 254.621 576.591 249.184C564.872 241.304 552.515 234.602 540.687 226.94C546.768 228.059 552.63 230.659 558.362 232.903C595.467 247.431 630.684 270.106 661.77 294.896C721.845 342.804 808.436 443.718 817.388 522.425C814.048 515.899 811.299 509.112 807.811 502.636C800.515 489.31 792.72 476.283 784.425 463.555C776.13 450.826 767.36 438.434 758.115 426.379C747.596 412.624 736.754 398.953 725.092 386.14C704.443 408.81 680.507 428.443 660.247 451.437C645.428 451.158 630.608 451.049 615.787 451.108C645.464 422.238 674.797 393.021 703.784 363.458Z" fill="#FACD15"/>
<path d="M763.426 760.907C757.526 765.896 752.181 771.593 746.407 776.745C735.014 786.79 723.102 796.177 710.671 804.904C708.264 806.546 705.837 808.158 703.39 809.74C700.943 811.322 698.477 812.874 695.992 814.395C693.507 815.916 691.003 817.407 688.481 818.866C685.959 820.325 683.419 821.753 680.862 823.15C678.305 824.547 675.731 825.912 673.14 827.245C670.549 828.578 667.942 829.879 665.319 831.148C662.696 832.417 660.058 833.653 657.404 834.856C654.751 836.059 652.083 837.23 649.4 838.368C646.718 839.506 644.022 840.611 641.312 841.682C638.602 842.753 635.879 843.79 633.144 844.794C630.409 845.798 627.661 846.768 624.902 847.705C622.143 848.641 619.372 849.543 616.591 850.41C613.81 851.278 611.018 852.111 608.215 852.91C605.413 853.709 602.602 854.474 599.781 855.203C596.96 855.932 594.13 856.627 591.292 857.286C588.454 857.945 585.608 858.57 582.754 859.159C579.901 859.748 577.04 860.302 574.173 860.821C571.306 861.34 568.433 861.823 565.554 862.271C562.675 862.718 559.79 863.13 556.901 863.507C554.012 863.884 551.118 864.225 548.22 864.53C545.322 864.835 542.421 865.104 539.517 865.337C536.612 865.571 533.705 865.769 530.796 865.93C527.887 866.092 524.976 866.218 522.064 866.307C519.151 866.397 516.238 866.451 513.325 866.469C510.411 866.487 507.497 866.469 504.584 866.415C501.671 866.361 498.759 866.271 495.848 866.145C492.937 866.019 490.027 865.857 487.12 865.659C484.213 865.462 481.309 865.228 478.408 864.959C475.507 864.689 472.609 864.384 469.715 864.043C466.822 863.702 463.933 863.325 461.048 862.913C458.163 862.5 455.284 862.052 452.411 861.569C449.538 861.086 446.671 860.567 443.81 860.013C427.023 856.887 410.71 852.127 394.628 846.43C392.419 845.647 390.218 844.842 388.025 844.015C385.832 843.188 383.648 842.339 381.472 841.468C379.296 840.598 377.129 839.706 374.971 838.792C372.813 837.878 370.664 836.943 368.525 835.986C366.386 835.029 364.256 834.051 362.136 833.052C360.016 832.053 357.906 831.032 355.807 829.991C353.708 828.949 351.619 827.887 349.54 826.804C347.462 825.721 345.395 824.617 343.338 823.493C341.282 822.368 339.237 821.223 337.204 820.058C335.171 818.893 333.149 817.707 331.139 816.502C329.13 815.297 327.132 814.071 325.147 812.825C323.162 811.58 321.189 810.315 319.229 809.03C317.269 807.745 315.322 806.441 313.388 805.117C311.454 803.794 309.533 802.451 307.626 801.089C305.719 799.726 303.825 798.345 301.946 796.946C300.066 795.546 298.2 794.127 296.349 792.69C294.498 791.253 292.662 789.798 290.839 788.324C289.017 786.85 287.21 785.358 285.417 783.849C283.625 782.339 281.848 780.811 280.086 779.266C278.324 777.721 276.578 776.158 274.847 774.577C273.116 772.997 271.401 771.4 269.702 769.785C268.003 768.171 266.321 766.54 264.655 764.892C262.988 763.244 261.339 761.579 259.706 759.898C258.073 758.217 256.456 756.52 254.857 754.807C253.258 753.094 251.676 751.365 250.112 749.62C248.547 747.875 247 746.115 245.47 744.339C243.941 742.564 242.429 740.773 240.935 738.967C239.442 737.161 237.966 735.34 236.509 733.505C235.052 731.67 233.613 729.82 232.192 727.956C230.771 726.092 229.37 724.214 227.987 722.322C226.604 720.429 225.24 718.524 223.895 716.605C222.55 714.686 221.225 712.753 219.918 710.807C218.314 708.444 216.739 706.062 215.193 703.661C213.648 701.26 212.132 698.84 210.646 696.401C209.159 693.962 207.703 691.506 206.277 689.032C204.852 686.557 203.456 684.066 202.091 681.557C200.726 679.048 199.393 676.523 198.09 673.982C196.787 671.441 195.516 668.884 194.276 666.312C193.036 663.739 191.828 661.152 190.651 658.549C189.474 655.947 188.33 653.331 187.218 650.701C186.106 648.07 185.026 645.427 183.978 642.77C182.931 640.113 181.916 637.444 180.935 634.762C179.953 632.081 179.004 629.387 178.088 626.682C177.173 623.977 176.29 621.262 175.441 618.535C174.592 615.808 173.777 613.072 172.995 610.325C172.213 607.578 171.465 604.822 170.751 602.057C170.036 599.292 169.356 596.519 168.71 593.737C168.064 590.956 167.452 588.166 166.874 585.369C166.297 582.572 165.753 579.769 165.244 576.959C164.735 574.149 164.261 571.333 163.822 568.511C163.382 565.69 162.977 562.863 162.607 560.031C162.236 557.2 161.901 554.364 161.6 551.524C161.299 548.684 161.033 545.841 160.802 542.994C160.571 540.148 160.376 537.299 160.215 534.448C160.054 531.597 159.928 528.744 159.837 525.889C159.746 523.035 159.69 520.18 159.669 517.324C159.648 514.469 159.662 511.613 159.711 508.758C159.76 505.903 159.845 503.048 159.964 500.195C160.083 497.342 160.238 494.49 160.427 491.64C160.616 488.791 160.841 485.944 161.1 483.1C161.359 480.256 161.653 477.416 161.982 474.579C162.311 471.742 162.674 468.91 163.073 466.082C163.472 463.254 163.905 460.431 164.372 457.614C164.84 454.797 165.342 451.986 165.879 449.181C166.27 447.105 166.679 445.033 167.106 442.964C167.534 440.895 167.98 438.831 168.445 436.77C168.91 434.709 169.394 432.653 169.895 430.601C170.397 428.549 170.917 426.502 171.456 424.459C171.995 422.416 172.552 420.379 173.127 418.346C173.702 416.313 174.296 414.286 174.907 412.264C175.519 410.242 176.149 408.226 176.797 406.215C177.445 404.204 178.111 402.2 178.795 400.201C179.479 398.202 180.181 396.21 180.901 394.224C181.621 392.238 182.359 390.259 183.114 388.286C183.869 386.313 184.642 384.348 185.433 382.389C186.224 380.43 187.032 378.478 187.858 376.534C188.684 374.589 189.527 372.653 190.388 370.724C191.249 368.795 192.127 366.873 193.022 364.96C193.917 363.047 194.83 361.141 195.759 359.244C196.688 357.347 197.635 355.459 198.598 353.579C199.561 351.699 200.542 349.828 201.539 347.965C202.536 346.103 203.55 344.25 204.58 342.406C205.611 340.561 206.658 338.727 207.721 336.902C208.784 335.077 209.864 333.261 210.96 331.455C212.056 329.649 213.168 327.853 214.297 326.067C215.425 324.281 216.569 322.505 217.73 320.74C218.89 318.975 220.066 317.22 221.258 315.476C222.449 313.732 223.657 311.999 224.88 310.276C226.103 308.554 227.341 306.843 228.595 305.142C229.849 303.442 231.118 301.753 232.402 300.076C233.686 298.399 234.985 296.733 236.299 295.079C237.613 293.425 238.942 291.783 240.285 290.153C241.629 288.522 242.987 286.904 244.36 285.299C245.733 283.693 247.12 282.1 248.521 280.519C249.922 278.938 251.338 277.37 252.767 275.815C254.196 274.26 255.64 272.717 257.097 271.188C263.763 264.25 275.269 251.876 283.2 246.911C284.746 245.943 285.428 246.213 287.095 246.548C288.211 248.402 289.776 249.966 291.213 251.575C285.598 256.574 279.913 261.481 274.396 266.59C221.399 315.661 186.111 384.906 173.736 455.773C170.761 472.812 169.418 490.035 168.759 507.303C168.509 515.818 168.62 524.329 169.091 532.836C169.562 541.342 170.392 549.813 171.581 558.249C171.865 560.433 172.17 562.614 172.497 564.791C172.823 566.969 173.17 569.143 173.539 571.314C173.908 573.485 174.297 575.653 174.708 577.816C175.119 579.979 175.55 582.139 176.002 584.294C176.454 586.449 176.927 588.6 177.421 590.746C177.915 592.892 178.43 595.033 178.966 597.169C179.501 599.305 180.057 601.436 180.634 603.561C181.211 605.686 181.808 607.806 182.426 609.919C183.043 612.032 183.681 614.14 184.34 616.241C184.999 618.342 185.678 620.437 186.377 622.526C187.076 624.614 187.796 626.695 188.535 628.769C189.274 630.843 190.034 632.91 190.814 634.97C191.593 637.029 192.393 639.081 193.212 641.125C194.031 643.169 194.87 645.205 195.729 647.233C196.588 649.26 197.466 651.279 198.364 653.29C199.261 655.301 200.178 657.303 201.115 659.296C202.052 661.289 203.008 663.273 203.983 665.247C204.958 667.222 205.952 669.187 206.965 671.142C207.978 673.097 209.01 675.043 210.061 676.978C211.112 678.913 212.181 680.837 213.269 682.752C214.357 684.667 215.463 686.571 216.588 688.464C217.713 690.357 218.857 692.239 220.018 694.11C221.179 695.981 222.359 697.84 223.556 699.688C224.753 701.536 225.969 703.372 227.202 705.197C228.435 707.022 229.685 708.834 230.953 710.635C232.221 712.435 233.507 714.223 234.81 715.998C236.113 717.773 237.432 719.536 238.769 721.286C240.106 723.036 241.459 724.773 242.83 726.496C244.201 728.22 245.588 729.93 246.991 731.627C248.395 733.324 249.815 735.007 251.251 736.676C252.687 738.345 254.139 740.001 255.608 741.642C257.076 743.283 258.56 744.909 260.06 746.522C261.967 748.608 263.899 750.67 265.856 752.707C267.814 754.744 269.797 756.757 271.805 758.745C273.812 760.734 275.845 762.697 277.902 764.634C279.959 766.571 282.039 768.483 284.143 770.369C286.248 772.254 288.375 774.113 290.526 775.946C292.677 777.779 294.85 779.584 297.046 781.363C299.241 783.142 301.459 784.893 303.698 786.616C305.937 788.339 308.198 790.034 310.48 791.701C312.761 793.368 315.063 795.007 317.386 796.616C319.708 798.225 322.05 799.806 324.412 801.357C326.774 802.908 329.155 804.43 331.554 805.922C333.954 807.414 336.372 808.876 338.808 810.307C341.244 811.739 343.698 813.14 346.169 814.511C348.64 815.882 351.127 817.221 353.632 818.53C356.136 819.838 358.656 821.115 361.193 822.361C363.729 823.607 366.28 824.821 368.847 826.003C371.413 827.185 373.994 828.335 376.589 829.453C379.184 830.571 381.793 831.657 384.415 832.71C387.037 833.763 389.672 834.783 392.32 835.77C394.967 836.757 397.627 837.711 400.298 838.632C402.969 839.553 405.652 840.441 408.345 841.295C411.039 842.149 413.743 842.97 416.456 843.757C419.17 844.544 421.893 845.296 424.626 846.015C427.359 846.734 430.1 847.419 432.85 848.07C435.599 848.721 438.357 849.337 441.122 849.919C443.887 850.501 446.659 851.048 449.438 851.561C452.217 852.074 455.001 852.552 457.792 852.995C460.583 853.439 463.378 853.848 466.179 854.222C468.98 854.595 471.785 854.934 474.594 855.238C477.403 855.542 480.216 855.811 483.032 856.045C485.848 856.279 488.666 856.478 491.487 856.641C494.308 856.805 497.131 856.934 499.955 857.027C502.388 857.105 504.822 857.157 507.256 857.184C509.691 857.211 512.125 857.212 514.559 857.187C516.994 857.162 519.428 857.111 521.861 857.035C524.294 856.958 526.726 856.856 529.157 856.729C531.588 856.601 534.018 856.448 536.446 856.269C538.874 856.09 541.3 855.885 543.723 855.655C546.146 855.424 548.567 855.168 550.985 854.887C553.404 854.606 555.819 854.299 558.23 853.966C560.642 853.634 563.05 853.276 565.454 852.893C567.858 852.51 570.258 852.101 572.653 851.666C575.048 851.232 577.439 850.773 579.825 850.288C582.21 849.804 584.591 849.294 586.966 848.759C589.341 848.224 591.71 847.664 594.073 847.079C596.436 846.494 598.793 845.885 601.143 845.25C603.494 844.615 605.837 843.956 608.173 843.271C610.509 842.587 612.838 841.878 615.16 841.145C617.481 840.412 619.794 839.654 622.099 838.871C624.404 838.088 626.701 837.282 628.99 836.451C631.278 835.62 633.557 834.765 635.828 833.886C638.098 833.007 640.359 832.104 642.61 831.177C644.861 830.25 647.102 829.3 649.333 828.326C651.564 827.351 653.784 826.354 655.994 825.333C658.204 824.312 660.403 823.267 662.591 822.2C664.779 821.132 666.955 820.041 669.12 818.928C671.285 817.814 673.438 816.678 675.579 815.519C677.72 814.36 679.848 813.178 681.964 811.974C684.08 810.77 686.183 809.544 688.273 808.295C690.362 807.047 692.439 805.777 694.502 804.484C696.565 803.191 698.615 801.877 700.65 800.542C702.685 799.206 704.706 797.849 706.713 796.471C708.72 795.092 710.711 793.693 712.688 792.273C714.665 790.852 716.627 789.411 718.574 787.949C732.423 777.559 745.053 765.538 757.702 753.745C759.671 756.074 761.526 758.521 763.426 760.907Z" fill="#FACD15"/>
<path d="M462.684 269.875C466.916 266.324 474.279 257.95 479.526 256.734C485.656 256.43 491.864 256.65 498.005 256.693L497.982 269.948L481.684 270.003L462.684 269.875Z" fill="#FACD15"/>
<path d="M525.831 270.046C525.711 265.558 525.692 261.105 525.828 256.618C532.809 256.51 539.791 256.516 546.772 256.637C549.437 258.987 559.73 266.671 560.172 269.717C548.814 270.509 537.217 270.065 525.831 270.046Z" fill="#FACD15"/>
<path d="M304.514 258.4C306.296 259.652 308.106 261.154 310.059 262.108L310.205 262.746C307.447 265.718 304.179 268.772 300.968 271.266C298.654 269.909 295.894 268.927 293.426 267.849C296.716 264.437 300.87 261.458 304.514 258.4Z" fill="#FEFEFD"/>
<path d="M746.576 743.611C742.553 748.528 737.759 753.066 733.082 757.363C671.733 813.735 583.906 846.403 500.518 842.775C497.805 842.674 495.093 842.539 492.382 842.37C489.672 842.201 486.964 841.999 484.259 841.764C481.554 841.529 478.852 841.26 476.153 840.958C473.454 840.655 470.76 840.32 468.07 839.951C465.379 839.582 462.694 839.18 460.014 838.745C457.333 838.31 454.659 837.841 451.99 837.34C449.321 836.839 446.659 836.305 444.003 835.738C441.348 835.171 438.7 834.571 436.059 833.938C433.418 833.306 430.786 832.641 428.161 831.943C425.536 831.246 422.921 830.516 420.315 829.753C417.709 828.991 415.113 828.197 412.526 827.37C409.939 826.543 407.363 825.685 404.797 824.795C402.232 823.905 399.678 822.983 397.135 822.03C394.592 821.077 392.062 820.092 389.544 819.076C387.025 818.061 384.52 817.014 382.028 815.936C379.535 814.859 377.056 813.75 374.591 812.611C372.126 811.472 369.676 810.303 367.239 809.103C364.803 807.904 362.382 806.674 359.977 805.415C357.571 804.156 355.181 802.867 352.807 801.548C350.433 800.229 348.076 798.882 345.735 797.505C343.394 796.128 341.071 794.723 338.766 793.289C336.46 791.854 334.172 790.392 331.902 788.901C329.633 787.41 327.382 785.892 325.149 784.346C322.917 782.799 320.704 781.226 318.511 779.625C316.318 778.024 314.145 776.396 311.992 774.741C309.839 773.086 307.706 771.405 305.595 769.697C303.484 767.99 301.394 766.256 299.325 764.497C297.256 762.738 295.21 760.954 293.185 759.144C291.16 757.335 289.158 755.5 287.179 753.641C285.2 751.782 283.245 749.898 281.312 747.991C279.379 746.083 277.47 744.152 275.585 742.197C273.7 740.242 271.84 738.265 270.004 736.264C268.175 734.259 266.37 732.232 264.59 730.183C262.811 728.134 261.056 726.063 259.327 723.971C257.598 721.879 255.895 719.766 254.218 717.633C252.54 715.499 250.889 713.345 249.264 711.171C247.639 708.997 246.042 706.803 244.471 704.59C242.9 702.377 241.356 700.145 239.84 697.894C238.323 695.643 236.835 693.373 235.374 691.086C233.913 688.799 232.48 686.494 231.076 684.172C229.671 681.849 228.295 679.51 226.948 677.154C225.601 674.798 224.282 672.426 222.993 670.037C221.704 667.649 220.444 665.245 219.214 662.826C217.983 660.407 216.783 657.973 215.612 655.525C214.441 653.076 213.3 650.614 212.189 648.137C211.078 645.66 209.998 643.171 208.949 640.668C207.899 638.165 206.88 635.65 205.892 633.122C204.904 630.594 203.947 628.055 203.021 625.504C202.094 622.953 201.199 620.39 200.336 617.817C199.473 615.244 198.641 612.661 197.841 610.067C197.041 607.474 196.273 604.871 195.536 602.259C194.799 599.646 194.095 597.025 193.423 594.396C192.75 591.767 192.11 589.129 191.502 586.484C190.895 583.839 190.319 581.187 189.776 578.528C189.233 575.869 188.723 573.203 188.245 570.531C187.767 567.86 187.322 565.183 186.91 562.5C186.498 559.817 186.119 557.13 185.772 554.438C185.425 551.746 185.112 549.05 184.831 546.351C184.55 543.652 184.303 540.949 184.089 538.243C183.874 535.538 183.693 532.83 183.545 530.12C183.396 527.41 183.281 524.699 183.2 521.986C183.118 519.273 183.069 516.559 183.054 513.845C183.038 511.131 183.056 508.417 183.107 505.704C183.158 502.99 183.242 500.277 183.359 497.566C183.473 495.508 183.606 493.451 183.757 491.396C183.908 489.341 184.079 487.287 184.268 485.234C184.457 483.182 184.666 481.132 184.893 479.083C185.12 477.034 185.366 474.988 185.631 472.944C185.896 470.9 186.179 468.859 186.481 466.82C186.783 464.781 187.104 462.745 187.444 460.712C187.783 458.679 188.142 456.65 188.519 454.623C188.896 452.597 189.291 450.574 189.706 448.555C190.12 446.536 190.553 444.521 191.004 442.51C191.455 440.499 191.925 438.493 192.413 436.49C192.901 434.487 193.408 432.49 193.933 430.497C194.458 428.504 195.001 426.515 195.562 424.532C196.123 422.549 196.703 420.572 197.301 418.599C197.899 416.626 198.515 414.66 199.149 412.699C199.783 410.738 200.435 408.782 201.105 406.833C201.775 404.884 202.463 402.941 203.168 401.005C203.874 399.068 204.598 397.138 205.339 395.215C206.08 393.292 206.838 391.375 207.615 389.466C208.392 387.557 209.186 385.656 209.997 383.761C210.808 381.866 211.637 379.979 212.483 378.1C213.329 376.22 214.192 374.348 215.073 372.485C215.954 370.622 216.851 368.766 217.766 366.919C218.681 365.072 219.612 363.234 220.56 361.404C221.509 359.574 222.474 357.753 223.456 355.941C224.438 354.129 225.436 352.326 226.451 350.532C227.466 348.738 228.498 346.954 229.546 345.179C230.594 343.404 231.658 341.639 232.738 339.884C233.819 338.129 234.915 336.384 236.028 334.649C237.14 332.914 238.268 331.189 239.412 329.475C240.557 327.76 241.717 326.057 242.892 324.364C244.067 322.671 245.258 320.989 246.465 319.318C247.672 317.647 248.893 315.987 250.13 314.338C263.022 297.43 277.742 282.156 293.426 267.849C295.894 268.927 298.654 269.909 300.968 271.266C289.114 282.056 277.699 293.21 267.351 305.474C227.589 352.605 200.261 413.083 193.422 474.531C193.104 477.192 192.819 479.856 192.568 482.523C192.316 485.19 192.097 487.86 191.912 490.533C191.727 493.206 191.575 495.881 191.456 498.558C191.337 501.235 191.252 503.912 191.2 506.591C191.147 509.27 191.128 511.949 191.143 514.628C191.158 517.307 191.205 519.986 191.286 522.664C191.367 525.342 191.482 528.019 191.629 530.694C191.777 533.369 191.958 536.042 192.172 538.713C192.386 541.384 192.633 544.051 192.914 546.716C193.194 549.381 193.507 552.041 193.854 554.698C194.201 557.355 194.58 560.007 194.993 562.655C195.406 565.302 195.851 567.944 196.329 570.58C196.807 573.216 197.318 575.846 197.862 578.47C198.405 581.093 198.981 583.71 199.59 586.319C200.199 588.928 200.84 591.53 201.513 594.123C202.186 596.716 202.892 599.301 203.63 601.877C204.367 604.452 205.137 607.018 205.939 609.575C206.74 612.132 207.573 614.678 208.438 617.214C209.303 619.75 210.199 622.275 211.126 624.788C212.054 627.302 213.013 629.804 214.002 632.293C214.992 634.783 216.013 637.26 217.064 639.725C218.115 642.189 219.197 644.64 220.31 647.078C221.422 649.515 222.564 651.939 223.737 654.348C224.91 656.757 226.112 659.151 227.344 661.53C228.576 663.909 229.838 666.273 231.129 668.621C232.42 670.968 233.739 673.3 235.088 675.615C236.437 677.93 237.814 680.228 239.22 682.509C240.626 684.79 242.06 687.052 243.523 689.297C244.985 691.542 246.475 693.769 247.993 695.977C249.51 698.185 251.055 700.374 252.627 702.544C254.199 704.713 255.798 706.863 257.424 708.993C259.049 711.123 260.701 713.232 262.379 715.321C264.009 717.347 265.663 719.353 267.342 721.339C269.021 723.325 270.723 725.29 272.45 727.234C274.177 729.179 275.927 731.102 277.7 733.004C279.473 734.905 281.27 736.785 283.089 738.644C284.908 740.502 286.75 742.338 288.613 744.151C290.477 745.964 292.363 747.754 294.27 749.521C296.178 751.288 298.107 753.032 300.057 754.753C302.006 756.473 303.977 758.169 305.968 759.842C307.959 761.514 309.971 763.162 312.002 764.786C314.033 766.409 316.084 768.008 318.155 769.581C320.225 771.154 322.314 772.702 324.422 774.225C326.53 775.748 328.656 777.244 330.801 778.715C332.945 780.186 335.107 781.63 337.287 783.048C339.466 784.467 341.663 785.858 343.876 787.223C346.09 788.588 348.32 789.925 350.566 791.235C352.812 792.546 355.074 793.829 357.351 795.084C359.628 796.339 361.92 797.567 364.227 798.766C366.534 799.965 368.856 801.137 371.192 802.28C373.527 803.423 375.877 804.537 378.24 805.623C380.603 806.708 382.978 807.765 385.367 808.793C387.755 809.821 390.156 810.82 392.569 811.789C394.982 812.758 397.406 813.698 399.842 814.609C402.277 815.52 404.724 816.4 407.181 817.251C409.638 818.102 412.106 818.923 414.583 819.714C417.06 820.505 419.547 821.265 422.042 821.995C424.538 822.725 427.042 823.425 429.555 824.094C432.068 824.763 434.588 825.402 437.117 826.01C439.645 826.618 442.18 827.195 444.723 827.741C447.265 828.287 449.813 828.802 452.368 829.286C454.923 829.771 457.484 830.224 460.05 830.645C462.616 831.067 465.187 831.458 467.762 831.817C470.337 832.176 472.917 832.503 475.5 832.8C478.001 833.075 480.504 833.322 483.011 833.539C485.517 833.756 488.025 833.944 490.536 834.103C493.047 834.262 495.559 834.392 498.073 834.493C500.587 834.594 503.102 834.666 505.617 834.709C508.132 834.752 510.648 834.765 513.163 834.75C515.679 834.734 518.194 834.689 520.709 834.616C523.224 834.542 525.737 834.439 528.249 834.307C530.762 834.175 533.272 834.014 535.781 833.824C538.29 833.634 540.796 833.415 543.299 833.167C545.802 832.919 548.303 832.642 550.8 832.336C553.297 832.03 555.79 831.695 558.279 831.331C560.768 830.968 563.253 830.575 565.734 830.154C568.214 829.733 570.689 829.283 573.159 828.804C575.629 828.325 578.093 827.818 580.551 827.283C583.009 826.747 585.46 826.183 587.905 825.591C590.35 824.998 592.788 824.378 595.219 823.729C597.65 823.08 600.072 822.404 602.487 821.699C604.902 820.994 607.309 820.261 609.707 819.5C612.105 818.739 614.494 817.951 616.874 817.135C619.253 816.319 621.623 815.476 623.984 814.605C626.344 813.734 628.694 812.836 631.033 811.911C633.372 810.986 635.701 810.034 638.018 809.055C640.336 808.076 642.642 807.07 644.936 806.037C647.23 805.004 649.512 803.945 651.781 802.86C654.051 801.775 656.308 800.663 658.551 799.526C660.795 798.389 663.026 797.225 665.243 796.036C667.46 794.847 669.662 793.632 671.851 792.392C674.04 791.151 676.215 789.886 678.374 788.595C680.533 787.304 682.678 785.989 684.807 784.649C686.936 783.309 689.049 781.944 691.146 780.555C693.243 779.166 695.324 777.752 697.389 776.315C699.454 774.878 701.502 773.417 703.533 771.932C711.95 765.778 720 759.177 727.683 752.129C732.348 747.828 736.716 743.078 741.682 739.128L742.203 738.721L746.576 743.611Z" fill="#FEFEFD"/>
<path d="M382.529 279.392C384.928 277.514 387.268 275.601 389.93 274.102C389.79 274.331 389.655 274.563 389.51 274.789C389.023 275.552 388.533 276.126 387.911 276.773L388 277.252C390.846 278.978 393.616 279.584 396.867 280.15L396.213 280.704L397.739 280.367L397.403 280.253L396.936 280.612L397.749 280.353C399.223 282.192 400.319 285.261 402.126 286.557C400.748 287.908 399.344 289.178 397.858 290.409C397.648 290.394 397.434 290.406 397.227 290.363C395.348 289.971 383.395 281.072 382.529 279.392Z" fill="#FACD15"/>
<path d="M379.423 281.424L382.529 279.392C383.395 281.072 395.348 289.971 397.227 290.363C397.434 290.406 397.648 290.394 397.858 290.409C396.227 291.788 394.608 293.179 392.999 294.583L392.351 294.984C388.366 290.166 383.273 286.325 379.423 281.424Z" fill="#FACD15"/>
<path d="M428.932 298.6C433.889 294.394 438.64 289.812 443.971 286.081C452.24 285.719 460.608 285.972 468.889 285.99C478.459 286.012 488.082 285.839 497.643 286.249L497.49 298.58L483.25 298.524L428.932 298.6Z" fill="#FACD15"/>
<path d="M525.509 298.971C525.465 295.737 524.307 289.342 526.092 286.57L527.783 286.236C535.969 285.773 544.265 286.038 552.465 286.075C561.618 286.117 570.823 285.968 579.962 286.458C583.691 289.01 588.864 292.998 591.433 296.768C592.076 297.712 591.978 297.273 591.785 298.3L590.125 298.505C568.597 298.913 547.029 298.217 525.509 298.971Z" fill="#FACD15"/>
<path d="M392.351 294.984L392.999 294.583C398.587 298.728 408.797 313.827 412.973 314.941L412.619 315.797C415.181 319.07 418.485 321.768 421.12 325.034C423.392 329.118 449.25 356.982 453.444 360.871C457.624 366.316 462.63 370.738 467.142 375.856C471.457 380.751 474.549 387.007 479.967 390.874C481.381 392.275 483.391 394.82 485.128 395.698C487.162 396.726 493.061 396.016 494.323 397.421C498.774 402.373 492.501 408.556 501.563 413.299C502.767 416.54 516.957 432.595 520.116 435.011C521.066 435.643 521.223 435.976 521.865 436.904C527.09 444.45 534.468 450.539 540.499 457.42C545.881 463.561 550.226 470.587 555.774 476.59C557.334 478.278 559.841 481.216 561.981 482.051L562.166 481.896C562.768 483.19 563.408 484.457 563.798 485.834C557.998 485.462 541.045 461.574 536.41 456.235L508.473 424.583C505.72 421.501 502.952 418.25 499.878 415.487C497.924 413.731 495.585 412.261 493.786 410.372C492.153 408.657 491.908 406.123 490.254 404.282C484.676 398.071 478.052 392.655 472.331 386.487C468.429 382.28 465.413 377.353 461.526 373.204C456.367 367.699 450.587 362.776 445.417 357.254C442.187 353.805 439.272 350.08 436.094 346.587C431.504 341.542 426.633 336.698 422.247 331.475C419.311 327.978 416.694 324.218 413.739 320.744C407.261 313.129 399.957 306.094 393.573 298.413C392.499 297.12 392.236 296.659 392.351 294.984Z" fill="#1B3A56"/>
<path d="M347.822 304.484C349.176 303.322 350.492 302.062 352.357 302.07C353.777 308.843 361.23 313.821 363.352 318.581C363.514 318.944 363.102 319.844 362.938 320.14L359.225 323.171C356.51 325.666 353.01 329.87 349.842 331.625C349.943 329.833 350.604 329.577 351.816 328.311C346.956 323.604 343.131 319.874 339.909 313.825L340.227 313.846C338.866 313.497 338.046 314.623 336.453 314.852C339.798 311.08 344.034 307.822 347.822 304.484Z" fill="#FACD15"/>
<path d="M352.357 302.07C354.388 304.093 356.358 306.42 357.988 308.777C361.254 312.568 365.59 314.962 369.188 318.354C377.223 325.93 385.031 334.249 392.574 342.317C401.633 352.006 409.947 362.136 418.659 372.094C429.613 384.612 440.887 396.78 451.939 409.195C460.642 418.972 469.127 429.056 478.06 438.616C482.414 443.274 487.557 447.11 491.997 451.684C493.725 453.465 498.691 460.479 500.764 460.88C501.306 460.985 501.911 460.936 502.46 460.916C513.076 472.17 523.514 483.587 533.774 495.167C537.538 499.453 541.915 503.722 545.152 508.41C548.604 519.664 577.927 551.068 587.602 558.681C588.159 559.509 588.655 560.24 589.312 560.994L589.179 561.664C588.361 561.28 588.236 561.016 587.329 561.245C587.433 562.698 588.117 563.737 588.814 564.973C589.943 565.501 591.069 565.714 592.28 565.96L581.01 566.028C577.873 562.561 575.765 558.037 572.61 554.451C566.717 547.752 560.203 541.565 554.149 535.007C548.648 529.046 543.438 522.48 538.257 516.223C534.842 512.098 532.275 507.377 529.004 503.156C525.62 498.79 521.279 494.828 517.343 490.959C512.867 485.198 507.131 480.321 502.204 474.923C496.343 468.501 491.428 461.261 485.468 454.926C479.803 448.904 474.237 442.575 468.377 436.764C464.795 433.211 460.599 430.021 457.296 426.226C454.552 423.073 453.105 418.931 450.264 415.817C444.708 409.723 438.493 404.331 432.815 398.379C429.356 394.752 426.525 390.576 423.002 386.994C418.24 382.153 412.915 377.747 408.464 372.608C405.869 369.613 404.234 365.84 401.762 362.725C396.461 356.046 390.44 350.214 384.841 343.831C381.536 340.063 378.644 335.982 375.252 332.276C371.486 328.026 367.429 323.627 362.938 320.14C363.102 319.844 363.514 318.944 363.352 318.581C361.23 313.821 353.777 308.843 352.357 302.07Z" fill="#FACD15"/>
<path d="M204.532 525.265C204.68 523.978 204.855 522.694 205.056 521.414C214.223 463.307 275.419 375.753 316.415 333.869C322.73 327.417 329.126 320.17 336.453 314.852C338.046 314.623 338.866 313.497 340.227 313.846L339.909 313.825C343.131 319.874 346.956 323.604 351.816 328.311C350.604 329.577 349.943 329.833 349.842 331.625C339.359 342.754 328.984 353.77 319.002 365.361C326.293 371.518 333.015 378.422 339.866 385.063L372.278 416.573L392.735 436.409C396.938 440.476 401.487 444.439 405.147 449.011C391.084 449.398 376.928 449.054 362.855 449.036C356.703 444.321 351.19 438.18 345.593 432.802C336.404 424.145 327.304 415.394 318.293 406.551C311.391 399.756 304.658 392.573 297.393 386.184C292.097 391.653 287.288 397.743 282.392 403.581C276.957 410.073 271.672 416.684 266.537 423.415C261.401 430.146 256.42 436.989 251.594 443.945C246.767 450.9 242.1 457.961 237.593 465.128C233.086 472.295 228.743 479.56 224.564 486.923C217.464 499.496 211.229 512.485 204.532 525.265Z" fill="#FACD15"/>
<path d="M412.973 314.941C440.03 311.551 470.118 313.402 497.6 312.951C497.575 317.338 497.726 321.808 497.353 326.179C478.542 326.11 459.71 326.342 440.903 326.03C434.475 325.923 427.408 323.942 421.12 325.034C418.485 321.768 415.181 319.07 412.619 315.797L412.973 314.941Z" fill="#FACD15"/>
<path d="M526.078 326.051C525.878 321.904 525.993 317.725 526.01 313.573C542.677 313.158 559.401 313.551 576.073 313.717C587.486 313.83 598.917 313.566 610.324 313.951C613.765 317.097 619.335 321.251 621.404 325.295L620.91 325.938C589.299 325.685 557.688 325.723 526.078 326.051Z" fill="#FACD15"/>
<path d="M359.225 323.171L362.938 320.14C367.429 323.627 371.486 328.026 375.252 332.276L375.298 340.675C374.294 339.69 372.887 338.58 372.233 337.356C368.066 332.414 363.697 327.834 359.225 323.171Z" fill="#1B3A56"/>
<path d="M502.095 399.087C503.826 376.736 503.352 354.131 504.378 331.749C505.037 338.842 504.612 346.16 504.314 353.271C508.864 357.063 514.049 362.522 519.448 364.988C519.52 380.515 520.267 396.16 519.953 411.668C518.642 415.215 520.359 419.917 518.844 423.075C518.475 422.772 518.135 422.56 517.904 422.136C518.196 420.458 518.638 418.989 518.632 417.259C517.67 414.864 514.839 411.504 512.489 410.428C512.538 410.607 512.576 410.791 512.636 410.967C512.711 411.189 512.851 411.392 512.894 411.622C513.026 412.323 512.787 412.665 513.09 413.42C513.458 414.339 513.334 413.863 513.534 415.042C513.582 415.322 513.618 415.604 513.66 415.885C513.021 415.718 512.561 415.616 512.019 415.219C505.863 410.719 506.333 407.58 504.599 401.426C504.164 399.883 503.383 399.766 502.095 399.087Z" fill="#FACD15"/>
<path d="M526.356 353.155L526.359 339.998C563.656 340.465 600.954 340.632 638.253 340.501C641.915 344.288 645.672 348.184 648.741 352.473C607.948 353.005 567.153 353.232 526.356 353.155Z" fill="#FACD15"/>
<path d="M453.444 360.871L453.138 360.352C451.714 357.973 450.042 355.872 448.311 353.715C450.236 355.464 452.34 357.232 453.993 359.24C455.87 361.519 457.697 365.461 460.101 367.109C464.53 370.146 489.172 368.342 496.025 368.484L496.009 380.531C491.42 380.616 474.979 379.246 472.303 380.751C474.152 384.545 477.841 387.261 479.967 390.874C474.549 387.007 471.457 380.751 467.142 375.856C462.63 370.738 457.624 366.316 453.444 360.871Z" fill="url(#paint0_linear_201_2)"/>
<path d="M438.151 356.465C443.763 361.646 449.59 367.119 454.859 372.642C459.101 377.09 463.003 381.84 467.282 386.269C472.887 392.069 478.824 397.468 484.522 403.152C487.337 405.96 488.3 410.048 491.3 412.924C496.802 418.198 502.431 423.366 507.633 428.94C511.464 433.045 514.935 437.478 518.787 441.561C523.877 446.957 529.432 451.944 534.29 457.557C539.941 464.086 544.099 471.737 550.048 477.992C553.699 481.829 559.041 488.018 564.08 489.806C564.503 489.732 564.988 489.697 565.385 489.537C568.213 495.531 580.542 513.067 585.489 517.182C586.142 518.119 585.725 517.703 586.54 518.27C588.024 519.302 589.192 520.718 590.606 521.852C597.381 527.281 609.385 535.644 610.715 544.899C610.763 545.234 610.78 545.572 610.812 545.908C609.556 546.751 608.781 547.05 608.317 548.625C608.224 548.942 608.201 549.276 608.142 549.602C607.428 549.619 607.156 549.436 606.639 550.012C605.601 551.166 604.928 552.872 604.236 554.269C604.151 552.547 604.067 551.037 603.115 549.552C598.765 542.766 589.581 534.186 583.97 527.969C570.689 513.334 557.589 498.54 544.67 483.585C545.132 483.097 545.619 482.639 546.104 482.173L547.833 483.283C547.567 481.198 542.919 476.762 541.457 474.925C537.845 470.384 534.97 465.322 531.287 460.813C526.328 454.744 520.484 449.415 515.213 443.615C505.585 433.02 496.142 421.489 485.456 411.943C481.884 404.052 457.171 382.199 449.94 372.669L450.459 372.127C450.357 368.266 439.569 361.217 438.151 356.465Z" fill="#FACD15"/>
<path d="M525.86 381.13L525.859 368.393L595.233 368.642C616.257 368.656 637.309 368.343 658.325 369.019L651.528 376.06C649.866 377.799 648.018 379.365 646.226 380.968C629.543 381.696 612.547 381.263 595.843 381.233L525.86 381.13Z" fill="#FACD15"/>
<path d="M525.791 396.376L530.233 396.259C542.384 394.578 563.013 396.086 575.83 396.274C593.87 396.537 612.117 395.785 630.116 396.872C627.177 399.451 624.305 402.103 621.502 404.829L617.375 408.931C586.908 410.15 556.283 408.254 525.812 409.457L525.791 396.376Z" fill="#FACD15"/>
<path d="M502.095 399.087C503.383 399.766 504.164 399.883 504.599 401.426C506.333 407.58 505.863 410.719 512.019 415.219C512.561 415.616 513.021 415.718 513.66 415.885C514.788 418.199 516.338 420.11 517.904 422.136C518.135 422.56 518.475 422.772 518.844 423.075C520.359 419.917 518.642 415.215 519.953 411.668C520.16 419.448 520.215 427.229 520.116 435.011C516.957 432.595 502.767 416.54 501.563 413.299C502.027 408.592 501.991 403.813 502.095 399.087Z" fill="#FACD15"/>
<path d="M513.66 415.885C513.618 415.604 513.582 415.322 513.534 415.042C513.334 413.863 513.458 414.339 513.09 413.42C512.787 412.665 513.026 412.323 512.894 411.622C512.851 411.392 512.711 411.189 512.636 410.967C512.576 410.791 512.538 410.607 512.489 410.428C514.839 411.504 517.67 414.864 518.632 417.259C518.638 418.989 518.196 420.458 517.904 422.136C516.338 420.11 514.788 418.199 513.66 415.885Z" fill="#FACD15"/>
<path d="M526.745 436.255C526.905 432.233 526.237 428.13 526.105 424.092C537.075 423.253 548.397 423.781 559.397 423.797C573.279 423.818 587.274 423.471 601.141 424.097L594.278 431.656C592.516 433.626 590.561 435.4 588.637 437.21C575.024 437.212 561.378 437.401 547.769 437.126C540.753 436.984 533.749 436.263 526.745 436.255Z" fill="#FACD15"/>
<path d="M269.832 505.449C276.725 505.397 291.124 507.157 296.792 505.17C297.865 502.637 292.221 496.396 291.325 493.267C290.477 490.307 290.758 487.212 292.376 484.564C295.08 480.137 299.885 478.747 304.596 477.577C321.38 476.973 338.456 477.384 355.253 477.637C355.35 481.439 355.28 485.256 355.278 489.06L340.433 489.046C340.534 498.708 340.514 508.37 340.372 518.032L326.982 518.02L326.944 489.281C322.333 489.278 313.628 487.917 309.583 489.859C308.149 490.548 308.182 491.238 307.821 492.643C311.978 497.313 317.813 500.037 318.108 507.159C318.202 509.42 317.341 511.546 315.753 513.152C307.654 521.344 280.929 519.023 269.886 519.024C269.744 514.506 269.828 509.969 269.832 505.449Z" fill="#FEFEFD"/>
<path d="M352.541 518.015C357.515 504.725 364.504 491.345 367.342 477.417L384.265 477.437C389.275 490.965 393.986 504.596 398.398 518.33L384.074 518.328L382.796 512.658C381.386 511.317 371.242 512.096 368.86 512.114L367.046 518.165L352.541 518.015ZM376.388 489.461C375.215 492.649 371.9 498.922 372.828 502.23C373.695 502.383 374.444 502.485 375.33 502.51C376.662 502.475 378.303 502.669 379.498 502.075C378.746 498.94 377.823 491.984 376.388 489.461Z" fill="#FEFEFD"/>
<path d="M402.969 518.157C402.919 504.826 402.964 491.495 403.105 478.165C412.132 478.034 422.254 477.031 431.133 478.599C435.224 479.322 439.275 481.059 441.591 484.678C443.674 487.931 443.829 492.403 442.972 496.071C441.897 500.669 438.892 503.288 435.069 505.649C436.394 507.415 437.634 508.944 439.823 509.61C441.795 510.21 443.182 509.714 444.962 508.845C445.858 507.572 444.017 507.286 444.105 505.592C446.477 503.658 450.216 503.942 453.136 503.824L453.107 514.125C452.983 514.869 452.856 515.39 452.317 515.968C450.165 518.277 445.182 518.653 442.142 518.796C428.249 519.451 430.828 516.729 422.361 509.615C421.143 508.591 419.938 508.031 418.331 508.137C417.681 511.181 418.118 515.048 418.129 518.198L402.969 518.157ZM417.948 487.865L417.9 498.995C420.937 499.036 424.811 499.596 427.45 497.849C428.281 495.772 429.409 493.068 428.391 490.847C427.701 489.341 426.158 488.584 424.627 488.212C422.519 487.7 420.11 487.857 417.948 487.865Z" fill="#FEFEFD"/>
<path d="M562.166 481.896L561.185 478.695C566.467 478.168 571.92 478.453 577.226 478.476C577.912 482.292 578.955 486.022 580.547 489.567C581.622 485.894 582.4 482.199 583.153 478.449L596.644 478.463L599.489 489.688C600.72 485.989 601.813 482.251 602.769 478.472L619.345 478.5C614.158 491.456 609.318 504.538 604.188 517.51L595.349 517.548C595.033 517.524 594.702 517.573 594.4 517.475C592.704 516.927 590.607 506.13 590.007 504C588.746 508.383 587.621 513.145 585.489 517.182C580.542 513.067 568.213 495.531 565.385 489.537C564.944 488.244 564.396 487.058 563.798 485.834C563.408 484.457 562.768 483.19 562.166 481.896Z" fill="#FEFEFD"/>
<path d="M611.686 518.039C616.123 504.71 621.701 491.808 625.958 478.392L644.724 478.409C646.169 483.644 648.562 488.751 650.637 493.767C653.998 502.08 657.528 510.322 661.226 518.491C657.03 518.523 649.895 519.657 646.082 518.195C645.272 517.884 645.285 517.203 644.995 516.453C644.737 515.463 644.458 514.701 643.949 513.813C640.21 511.832 632.138 513.236 627.877 513.286L626.014 518.085L611.686 518.039ZM635.322 491.52C634.323 494.531 631.02 500.477 632.175 503.299C633.55 504.011 635.13 503.689 636.625 503.589L638.72 503.373C639.448 501.883 638.989 500.187 638.449 498.641C637.734 496.594 636.679 493.159 635.322 491.52Z" fill="#FEFEFD"/>
<path d="M662.661 518.504L662.518 478.499C671.439 478.495 681.546 477.381 690.313 478.751C694.202 479.36 697.965 481.099 700.176 484.477C702.379 487.844 702.938 492.678 701.892 496.53C700.852 500.358 698.401 502.922 694.987 504.768C697.162 508.36 699.631 511.703 702.12 515.079C701.693 511.74 700.988 509.06 702.937 506.084C706.431 503.542 710.196 506.771 714.026 506.356C715.267 506.221 715.773 505.827 716.607 504.945C717.766 501.471 710.759 496.165 710.397 490.469C710.216 487.626 711.47 484.741 713.455 482.731C719.465 476.643 733.28 478.736 741.287 478.886L741.268 491.389C736.422 492.345 731.281 490.693 726.429 492.117C724.156 495.08 734.692 504.144 735.06 510.123C735.179 512.058 734.69 513.876 733.286 515.256C727.061 521.373 697.276 518.227 688.062 518.197C686.384 514.991 683.241 507.324 679.859 506.106C679.119 505.84 679.241 506.027 678.428 506.473C676.253 509.888 676.928 514.592 677.01 518.498L662.661 518.504ZM676.614 488.987L676.565 497.617C680.069 497.62 684.202 498.051 687.538 496.821C688.288 495.085 689.002 493.426 688.348 491.523C688.03 490.598 687.228 489.914 686.333 489.547C683.5 488.386 679.633 488.89 676.614 488.987Z" fill="#FEFEFD"/>
<path d="M417.9 498.995L417.948 487.865C420.11 487.857 422.519 487.7 424.627 488.212C426.158 488.584 427.701 489.341 428.391 490.847C429.409 493.068 428.281 495.772 427.45 497.849C424.811 499.596 420.937 499.036 417.9 498.995Z" fill="#1B3A56"/>
<path d="M676.565 497.617L676.614 488.987C679.633 488.89 683.5 488.386 686.333 489.547C687.228 489.914 688.03 490.598 688.348 491.523C689.002 493.426 688.288 495.085 687.538 496.821C684.202 498.051 680.069 497.62 676.565 497.617Z" fill="#1B3A56"/>
<path d="M375.33 502.51C374.444 502.485 373.695 502.383 372.828 502.23C371.9 498.922 375.215 492.649 376.388 489.461C377.823 491.984 378.746 498.94 379.498 502.075C378.303 502.669 376.662 502.475 375.33 502.51Z" fill="#1B3A56"/>
<path d="M636.625 503.589C635.13 503.689 633.55 504.011 632.175 503.299C631.02 500.477 634.323 494.531 635.322 491.52C636.679 493.159 637.734 496.594 638.449 498.641C638.989 500.187 639.448 501.883 638.72 503.373L636.625 503.589Z" fill="#1B3A56"/>
<path d="M585.489 517.182C587.621 513.145 588.746 508.383 590.007 504C590.607 506.13 592.704 516.927 594.4 517.475C594.702 517.573 595.033 517.524 595.349 517.548C596.153 520.182 598.25 521.915 600.056 523.913C608.196 532.916 621.005 544.219 613.819 557.509C612.915 559.181 611.71 560.538 610.407 561.907C609.071 558.578 611.482 551.284 610.812 545.908C610.78 545.572 610.763 545.234 610.715 544.899C609.385 535.644 597.381 527.281 590.606 521.852C589.192 520.718 588.024 519.302 586.54 518.27C585.725 517.703 586.142 518.119 585.489 517.182Z" fill="#FACD15"/>
<path d="M545.152 508.41C554.019 516.797 588.267 559.31 595.084 561.893C593.256 562.135 592.351 562.064 590.884 560.917C589.819 560.084 588.758 559.379 587.602 558.681C577.927 551.068 548.604 519.664 545.152 508.41Z" fill="#FACD15"/>
<path d="M608.142 549.602C608.201 549.276 608.224 548.942 608.317 548.625C608.781 547.05 609.556 546.751 610.812 545.908C611.482 551.284 609.071 558.578 610.407 561.907C609.183 563.467 608.005 565.126 606.696 566.612C603.964 566.371 601.229 566.172 598.49 566.016C598.779 565.758 599.051 565.533 599.29 565.215C600.892 563.085 602.662 561.526 604.419 559.559C607.38 556.246 608.436 554.042 608.142 549.602Z" fill="#FACD15"/>
<path d="M604.236 554.269C604.928 552.872 605.601 551.166 606.639 550.012C607.156 549.436 607.428 549.619 608.142 549.602C608.436 554.042 607.38 556.246 604.419 559.559C602.662 561.526 600.892 563.085 599.29 565.215C599.051 565.533 598.779 565.758 598.49 566.016L592.28 565.96C591.069 565.714 589.943 565.501 588.814 564.973C588.117 563.737 587.433 562.698 587.329 561.245C588.236 561.016 588.361 561.28 589.179 561.664L589.312 560.994C588.655 560.24 588.159 559.509 587.602 558.681C588.758 559.379 589.819 560.084 590.884 560.917C592.351 562.064 593.256 562.135 595.084 561.893C599.536 560.139 601.837 558.474 604.236 554.269Z" fill="#FACD15"/>
<path d="M354.876 708.065L354.949 564.531L409.582 564.497C434.322 564.544 460.058 567.546 478.335 586.113C491.499 599.486 497.656 618.81 497.523 637.344C497.384 656.835 491.027 674.38 477.072 688.13C453.544 708.703 426.551 708.37 397.193 708.25L354.876 708.065ZM391.604 597.076L391.524 676.502C410.521 676.555 434.98 679.982 449.824 665.646C458.324 656.588 461.152 647.111 460.74 634.762C460.398 624.509 456.858 614.964 449.167 607.949C433.981 594.097 410.618 597.037 391.604 597.076Z" fill="#FACD15"/>
<path d="M521.758 565.988L581.01 566.028L592.28 565.96L598.49 566.016C601.229 566.172 603.964 566.371 606.696 566.612C619.426 568.587 633.587 571.843 641.657 582.872C645.012 587.457 646.728 592.588 647.947 598.079C650.293 596.279 652.616 594.166 655.404 593.117C655.227 593.347 655.056 593.58 654.874 593.805C652.774 596.41 648.771 597.599 647.941 601.128L648.269 601.988L649.143 601.559L649.003 602.131C649.08 602.007 649.145 601.874 649.234 601.757C651.169 599.229 656.166 596.664 658.858 594.701L659.025 595.909C656.545 597.331 648.849 602.116 648.191 604.847C647.993 605.668 648.013 606.383 648.116 607.207L648.676 607.494C653.22 604.559 655.991 599.389 660.541 596.282C660.14 599.051 649.709 608.45 647.238 610.916C646.972 611.955 646.675 612.984 646.346 614.004C643.038 624.483 634.921 630.861 625.552 635.729C632.737 637.932 639.566 639.122 645.261 644.457C651.88 650.658 655.395 659.844 655.62 668.825C655.862 678.49 652.351 688.246 645.555 695.184C639.244 701.626 631.129 704.987 622.406 706.79C609.904 709.374 595.87 708.094 583.1 708.101C562.645 708.06 542.19 708.145 521.735 708.354C521.217 660.923 521.774 613.426 521.758 565.988ZM557.159 595.97L557.088 624.544C567.466 624.563 588.322 625.734 597.43 623.922C600.088 623.393 602.203 622.498 604.44 620.986C608.12 617.07 608.847 613.275 608.617 608.035C608.467 604.606 607.329 601.65 604.647 599.408C602.576 597.676 600.001 596.697 597.367 596.219C592.894 595.407 587.882 595.838 583.333 595.86C574.612 595.901 565.88 596.055 557.159 595.97ZM557.083 650L557.107 680.037L586.497 680.052C592.894 680.065 599.839 680.68 606.126 679.373C608.881 678.8 611.084 677.602 613.347 675.976C616.268 672.207 618.235 667.672 617.599 662.8C617.118 659.116 615.163 655.085 612.118 652.869C610.122 651.417 607.883 650.624 605.461 650.233C599.548 649.277 593.041 649.849 587.04 649.895C577.055 649.987 567.069 650.022 557.083 650Z" fill="#FACD15"/>
<path d="M655.404 593.117C656.525 593.622 657.812 594.069 658.858 594.701C656.166 596.664 651.169 599.229 649.234 601.757C649.145 601.874 649.08 602.007 649.003 602.131L649.143 601.559L648.269 601.988L647.941 601.128C648.771 597.599 652.774 596.41 654.874 593.805C655.056 593.58 655.227 593.347 655.404 593.117Z" fill="#1B3A56"/>
<path d="M557.088 624.544L557.159 595.97C565.88 596.055 574.612 595.901 583.333 595.86C587.882 595.838 592.894 595.407 597.367 596.219C600.001 596.697 602.576 597.676 604.647 599.408C607.329 601.65 608.467 604.606 608.617 608.035C608.847 613.275 608.12 617.07 604.44 620.986C602.203 622.498 600.088 623.393 597.43 623.922C588.322 625.734 567.466 624.563 557.088 624.544Z" fill="#1B3A56"/>
<path d="M660.541 596.282C655.991 599.389 653.22 604.559 648.676 607.494L648.116 607.207C648.013 606.383 647.993 605.668 648.191 604.847C648.849 602.116 656.545 597.331 659.025 595.909L660.541 596.282Z" fill="#1B3A56"/>
<path d="M391.524 676.502L391.604 597.076C410.618 597.037 433.981 594.097 449.167 607.949C456.858 614.964 460.398 624.509 460.74 634.762C461.152 647.111 458.324 656.588 449.824 665.646C434.98 679.982 410.521 676.555 391.524 676.502Z" fill="#1B3A56"/>
<path d="M737.118 617.638C738.343 612.843 739.736 608.081 741.052 603.31C743.635 606.205 745.074 613.724 746.328 617.496C751.187 617.565 756.044 617.508 760.899 617.323C757.182 620.626 753.092 623.483 749.083 626.416C750.947 630.971 752.34 635.61 753.734 640.322C749.39 637.483 745.023 634.68 740.634 631.913C736.964 634.983 733.314 637.966 729.385 640.709C730.58 635.86 732.41 631.119 734.325 626.514C729.808 623.429 725.145 620.556 720.628 617.461L737.118 617.638Z" fill="#FACD15"/>
<path d="M292.535 616.447L297.154 605.873C299.393 608.524 300.791 613.271 302.136 616.523L315.371 617.357C312.146 620.628 308.891 623.869 305.607 627.081C306.54 630.852 307.417 634.637 308.236 638.435C304.588 636.501 301.19 634.13 297.757 631.842C294.052 633.231 290.077 636 286.545 637.902C287.455 634.071 288.235 630.227 289.256 626.422C285.969 623.449 282.29 620.533 279.531 617.063C283.868 616.686 288.186 616.552 292.535 616.447Z" fill="#FACD15"/>
<path d="M657.977 638.171C665.4 631.139 673.68 625.153 681.009 617.926C682.824 619.093 685.263 621.339 685.994 623.376C686.029 624.56 685.891 625.153 685.316 626.16C684.858 626.962 684.51 627.638 684.236 628.532L684.682 628.825C685.709 628.078 686.786 627.177 687.962 626.686C689 626.253 689.174 626.344 690.164 626.721C690.353 627.054 690.627 627.492 690.711 627.862C691.196 629.994 688.75 630.711 687.641 632.402C687.882 633.747 688.094 633.796 689.111 634.744C690.524 634.111 690.387 631.753 691.837 630.535C693.371 631.024 693.934 632.137 694.953 633.356C687.539 639.93 680.648 647.873 673.877 655.127L673.341 655.656C671.589 654.997 669.803 652.09 668.607 650.622C669.914 649.259 671.117 647.792 672.845 646.967C673.913 647.431 673.386 648.557 674.37 649.341L675.298 648.208L675.087 647.117C673.909 646.524 673.391 646.32 672.011 646.583C670.393 646.892 669.195 649.031 668.285 650.273C664.92 646.178 661.484 642.144 657.977 638.171Z" fill="#FEFEFD"/>
<path d="M557.107 680.037L557.083 650C567.069 650.022 577.055 649.987 587.04 649.895C593.041 649.849 599.548 649.277 605.461 650.233C607.883 650.624 610.122 651.417 612.118 652.869C615.163 655.085 617.118 659.116 617.599 662.8C618.235 667.672 616.268 672.207 613.347 675.976C611.084 677.602 608.881 678.8 606.126 679.373C599.839 680.68 592.894 680.065 586.497 680.052L557.107 680.037Z" fill="#1B3A56"/>
<path d="M709.096 682.707C713.401 679.119 717.604 675.44 721.493 671.402C723.55 673.021 725.315 675.251 727.104 677.171C722.941 680.816 718.847 684.537 714.824 688.336C712.874 687.841 710.512 684.337 709.096 682.707Z" fill="#FEFEFD"/>
<path d="M762.705 746.894C761.756 747.814 761.097 748.16 760.782 749.486C761.088 749.743 761.412 750.079 761.768 750.257C762.957 753.135 766.554 755.226 767.062 757.845L766.286 758.255C765.666 757.897 765.65 757.918 765.006 757.371C761.334 754.253 758.386 749.392 755.03 745.811C745.357 735.489 735.958 724.925 726.387 714.506C722.561 710.341 718.377 706.439 714.662 702.193C713.642 701.026 712.496 699.969 712.433 698.35C712.307 695.105 715.329 692.046 717.482 689.986C724.847 682.937 728.66 677.955 739.472 678.229C743.089 681.848 746.299 685.967 749.745 689.759C758.042 698.888 766.467 707.861 774.616 717.13C779.78 723.003 784.639 729.106 790.29 734.531C790.957 732.977 791.584 730.969 792.771 729.746C793.351 729.15 793.562 729.358 794.308 729.396L795.04 730.232C794.683 731.093 794.842 731.019 794.31 731.518C787.326 738.061 780.374 744.483 773.794 751.455C771.964 748.294 769.5 745.458 768.235 742L768.57 741.561C771.166 742.411 772.199 747.215 775.028 748.544L775.53 747.811C775.514 746.786 775.298 746.33 774.694 745.548C772.963 743.306 771.349 740.977 769.707 738.668C767.457 741.478 765.063 744.174 762.705 746.894ZM773.375 734.879C772.392 735.921 771.502 736.346 771.519 737.832C773.452 740.292 775.443 742.704 777.493 745.067L778.298 745.121C778.736 744.511 779.135 744.327 778.96 743.526C778.278 740.406 774.753 738.564 773.726 735.347C774.774 734.835 774.207 735.019 775.437 734.831C777.79 736.758 779.17 739.533 781.471 741.531L782.305 741.448C782.7 740.863 783.102 740.554 783.059 739.809C782.973 738.301 782.014 737.295 781.003 736.29C779.527 734.822 778.162 733.283 776.784 731.725C775.586 732.682 774.488 733.822 773.375 734.879ZM738.887 694.141C735.689 694.653 733.654 695.249 731.628 697.906C729.773 700.337 729.384 703.472 729.827 706.429C730.414 710.348 732.471 713.702 735.709 715.986C738.976 718.29 742.325 718.722 746.222 718.713C749.294 717.681 751.756 716.498 753.272 713.476C754.676 710.677 754.384 707.329 753.333 704.468C751.854 700.441 748.616 696.945 744.648 695.269C742.839 694.506 740.831 694.276 738.887 694.141ZM781.383 727.475L778.473 730.16C780.847 732.647 783.379 735.084 785.615 737.691L787.371 736.148C787.382 734.382 786.333 733.23 785.125 731.969C783.717 730.498 782.467 729.237 781.383 727.475Z" fill="#FEFEFD"/>
<path d="M746.222 718.713C742.325 718.722 738.976 718.29 735.709 715.986C732.471 713.702 730.414 710.348 729.827 706.429C729.384 703.472 729.773 700.337 731.628 697.906C733.654 695.249 735.689 694.653 738.887 694.141C740.831 694.276 742.839 694.506 744.648 695.269C748.616 696.945 751.854 700.441 753.333 704.468C754.384 707.329 754.676 710.677 753.272 713.476C751.756 716.498 749.294 717.681 746.222 718.713ZM738.407 698.928C736.626 699.967 735.101 701.035 734.423 703.09C733.921 704.609 734.237 706.298 735.04 707.651C737.48 711.765 741.787 713.695 746.189 714.918C747.983 714.01 749.029 713.339 749.704 711.306C750.304 709.497 749.701 707.369 748.784 705.78C747.085 702.837 744.042 700.076 740.683 699.284C739.934 699.105 739.175 698.986 738.407 698.928Z" fill="#1B3A56"/>
<path d="M746.189 714.918C741.787 713.695 737.48 711.765 735.04 707.651C734.237 706.298 733.921 704.609 734.423 703.09C735.101 701.035 736.626 699.967 738.407 698.928C739.175 698.986 739.934 699.105 740.683 699.284C744.042 700.076 747.085 702.837 748.784 705.78C749.701 707.369 750.304 709.497 749.704 711.306C749.029 713.339 747.983 714.01 746.189 714.918ZM738.32 700.324C737.264 701.329 736.267 702.173 736.196 703.748C736.111 705.64 737.265 707.177 738.593 708.382C740.671 710.267 743.124 711.479 745.722 712.47C746.858 711.195 747.068 710.916 747.439 709.261C746.676 705.8 743.925 703.446 741.041 701.592C740.164 701.028 739.302 700.661 738.32 700.324Z" fill="#FEFEFD"/>
<path d="M745.722 712.47C743.124 711.479 740.671 710.267 738.593 708.382C737.265 707.177 736.111 705.64 736.196 703.748C736.267 702.173 737.264 701.329 738.32 700.324C739.302 700.661 740.164 701.028 741.041 701.592C743.925 703.446 746.676 705.8 747.439 709.261C747.068 710.916 746.858 711.195 745.722 712.47Z" fill="#1B3A56"/>
<path d="M778.473 730.16L781.383 727.475C782.467 729.237 783.717 730.498 785.125 731.969C786.333 733.23 787.382 734.382 787.371 736.148L785.615 737.691C783.379 735.084 780.847 732.647 778.473 730.16Z" fill="#1B3A56"/>
<path d="M773.726 735.347C774.753 738.564 778.278 740.406 778.96 743.526C779.135 744.327 778.736 744.511 778.298 745.121L777.493 745.067C775.443 742.704 773.452 740.292 771.519 737.832C771.502 736.346 772.392 735.921 773.375 734.879C774.488 733.822 775.586 732.682 776.784 731.725C778.162 733.283 779.527 734.822 781.003 736.29C782.014 737.295 782.973 738.301 783.059 739.809C783.102 740.554 782.7 740.863 782.305 741.448L781.471 741.531C779.17 739.533 777.79 736.758 775.437 734.831C774.207 735.019 774.774 734.835 773.726 735.347Z" fill="#1B3A56"/>
<path d="M807.264 740.069C799.438 747.483 791.555 754.835 783.614 762.126C779.044 766.358 774.056 770.572 769.927 775.226C769.336 774.638 768.852 773.932 768.342 773.272C768.946 770.031 799.297 741.156 804.03 736.177C805.054 737.516 806.173 738.785 807.264 740.069Z" fill="#FEFEFD"/>
<path d="M503.028 760.984C505.896 753.696 509.408 746.548 512.6 739.388C516.599 745.471 519.435 754.64 522.485 761.451C530.708 761.662 539.024 762.516 547.243 763.005C541.337 768.858 534.556 773.947 528.069 779.13C529.839 786.664 531.903 794.114 533.453 801.701C526.363 798.411 519.34 794.427 512.794 790.162C505.871 794.373 498.608 798.151 491.529 802.1C493.137 794.467 495.289 786.924 497.279 779.381C490.938 773.997 484.644 768.558 478.398 763.065C486.595 762.396 494.875 762.043 503.028 760.984Z" fill="#FACD15"/>
<path d="M769.927 775.226C774.056 770.572 779.044 766.358 783.614 762.126C791.555 754.835 799.438 747.483 807.264 740.069C808.817 740.561 811.257 743.278 812.141 744.661C812.428 745.109 812.438 745.233 812.571 745.679C809.721 750.67 782.969 776.63 776.956 782.218C774.153 780.765 771.951 778.024 769.981 775.624L769.927 775.226Z" fill="#1B3A56"/>
<path d="M761.768 750.257C761.412 750.079 761.088 749.743 760.782 749.486C761.097 748.16 761.756 747.814 762.705 746.894C764.39 748.534 767.274 752.766 769.23 753.562L769.917 753.202C770.162 751.366 768.713 749.677 767.66 748.3C766.792 747.164 766.06 746.352 765.717 744.925L766.424 744.688C768.737 746.018 771.261 748.91 772.227 751.404C772.483 752.063 772.561 752.592 772.188 753.198C771.408 754.468 769.842 755.474 768.664 756.394C766.873 754.693 763.985 750.891 761.768 750.257Z" fill="#FEFEFD"/>
<path d="M812.571 745.679L812.96 745.144C814.633 746.479 815.752 748.378 816.915 750.154C812.388 753.968 780.932 784.267 779.073 784.609C778.352 783.93 777.63 783.267 776.962 782.536L776.956 782.218C782.969 776.63 809.721 750.67 812.571 745.679Z" fill="#FEFEFD"/>
<path d="M790.068 792.172C789.504 792.825 789.884 792.554 788.817 792.799C787.795 791.969 787.684 792.065 787.537 790.779C790.417 787.178 794.23 784.184 797.504 780.927C805.876 772.599 814.515 764.141 821.971 754.986L825.452 759.369C814.098 770.741 801.832 781.223 790.068 792.172Z" fill="#FEFEFD"/>
<path d="M799.28 801.921L798.233 802.522C797.039 802.252 797.068 802.294 796.358 801.302C796.661 798.972 826.563 769.307 830.441 764.855C831.97 765.992 833.333 768.142 834.564 769.635C829.083 775.438 823.399 781.033 817.51 786.421C811.621 791.809 805.545 796.976 799.28 801.921Z" fill="#FEFEFD"/>
</g>
<defs>
<linearGradient id="paint0_linear_201_2" x1="467.239" y1="379.996" x2="493.657" y2="366.81" gradientUnits="userSpaceOnUse">
<stop stop-color="#1B3A56"/>
<stop offset="1" stop-color="#FACD15"/>
</linearGradient>
<clipPath id="clip0_201_2">
<rect width="1024" height="1024" fill="white"/>
</clipPath>
</defs>
</svg>
